<?xml version="1.0" standalone="no"?>
<!DOCTYPE svg PUBLIC "-//W3C//DTD SVG 1.1//EN" "http://www.w3.org/Graphics/SVG/1.1/DTD/svg11.dtd" >
<svg xmlns="http://www.w3.org/2000/svg">
<metadata>
This is a custom SVG webfont generated by Font Squirrel.
Copyright   : Created by gluk with FontForge 10 httpfontforgesfnetThis Font Software is licensed under the SIL Open Font License V11This license is available with a FAQ at httpscriptssilorgOFL
</metadata>
<defs>
<font id="ResagnictoItalic" horiz-adv-x="1365" >
<font-face units-per-em="2048" ascent="1621" descent="-427" />
<missing-glyph horiz-adv-x="938" />
<glyph unicode=" "  horiz-adv-x="938" />
<glyph unicode="&#x09;" horiz-adv-x="938" />
<glyph unicode="&#xa0;" horiz-adv-x="938" />
<glyph unicode="!" horiz-adv-x="384" d="M6 26q0 6 2 17l15 85q2 11 4 16t8.5 12.5t21 11t37.5 3.5h43q34 0 46.5 -6.5t12.5 -19.5q0 -5 -2 -17l-15 -85q-3 -18 -7 -25t-19 -12.5t-46 -5.5h-43q-34 0 -46 6t-12 20zM112 512q57 204 81 341q20 113 35.5 238.5t31 283.5t26.5 246h171q-20 -84 -60 -243.5 t-69.5 -286t-49.5 -238.5q-32 -181 -38 -341h-128z" />
<glyph unicode="&#x22;" horiz-adv-x="682" d="M275 1556v6q9 52 37 77t65 25h87l-30 -171q-2 -11 -3 -17.5t-5.5 -21.5t-9 -30.5t-16 -56.5t-24.5 -87h-86q20 64 28 107q6 35 6 62q0 29 -8 48.5t-17 26.5t-16.5 15t-7.5 17zM531 1556v6q9 52 37 77t65 25h87l-30 -171q-2 -11 -3 -17.5t-5.5 -21.5t-9 -30.5t-16 -56.5 t-24.5 -87h-86q20 64 28 107q6 35 6 62q0 29 -8 48.5t-17 26.5t-16.5 15t-7.5 17z" />
<glyph unicode="#" horiz-adv-x="1280" d="M107 427l17 85h256l88 512h-256l15 85h256l60 342h85l-60 -342h342l60 342h85l-60 -342h256l-15 -85h-256l-88 -512h256l-17 -85h-256l-60 -342h-85l60 342h-341l-60 -342h-86l60 342h-256zM465 512h342l87 512h-341z" />
<glyph unicode="$" d="M21 164l60 103q13 -5 38 -14q100 -37 149 -54t122 -32t148 -18l110 621l-212 128q-99 55 -149.5 132t-50.5 160q0 23 4 45q11 61 49.5 114.5t102 95.5t159 66.5t211.5 24.5h21l15 85h86l-15 -85q188 -5 380 -79l-59 -98q-19 7 -71 25t-71.5 24.5t-57.5 17t-69.5 15.5 t-67.5 8l-92 -525l277 -167q87 -52 132 -111.5t45 -139.5q0 -27 -5 -56q-11 -63 -38.5 -118t-76.5 -104.5t-116 -84.5t-161.5 -56.5t-208.5 -22.5l-26 -149h-86l26 149q-260 2 -502 100zM405 1241q0 -53 40.5 -105.5t121.5 -96.5l116 -68l85 480q-154 -3 -250.5 -56 t-110.5 -130q-2 -12 -2 -24zM624 149q79 4 146 21t113 41t80 54.5t51.5 60t22.5 58.5q4 25 4 48q0 30 -9 56.5t-20 43.5t-33.5 35.5t-36.5 27.5t-43 26l-173 104z" />
<glyph unicode="%" horiz-adv-x="2133" d="M205 1124q0 40 7 79l5 26q5 31 15.5 63.5t29 72t43.5 74.5t62.5 69t81.5 58.5t104 39.5t128 15h64q78 0 138.5 -20t96 -51t58.5 -73.5t31.5 -83.5t8.5 -85q0 -40 -7 -79l-5 -26q-5 -31 -15.5 -63.5t-29.5 -72t-43.5 -74.5t-62 -69t-81.5 -58.5t-104 -39.5t-128 -15h-64 q-78 0 -138.5 20t-96.5 51t-58.5 73.5t-31 83.5t-8.5 85zM375 1126q0 -33 5.5 -63t20.5 -61.5t37.5 -54t60.5 -37t86 -14.5q59 0 109 21t83 52t58 72t38 76.5t19 68.5l11 60q5 29 5 60q0 33 -5.5 63t-20.5 61.5t-38 54t-60.5 37t-85.5 14.5q-59 0 -109 -21t-83 -52 t-58.5 -72t-38 -76.5t-18.5 -68.5l-11 -60q-5 -29 -5 -60zM495 0l1097 1621l70 -38l-1097 -1621zM1126 292q0 40 6 79l5 26q5 31 15.5 63.5t29.5 72t44 74.5t62 69t81 58.5t104 39.5t128 15h64q78 0 138.5 -20t96 -50.5t58.5 -73.5t31 -83.5t8 -84.5q0 -41 -7 -80l-5 -26 q-5 -31 -15 -63.5t-29 -72t-44 -74.5t-62 -69t-81 -58.5t-104 -39.5t-128 -15h-64q-78 0 -138.5 20t-96 51t-58.5 73.5t-31 83.5t-8 85zM1296 294q0 -33 5.5 -63t20 -61.5t37.5 -54t60.5 -37t85.5 -14.5q59 0 109 21t83 52t58.5 72t38.5 76.5t18 68.5l11 60q5 29 5 60 q0 33 -5.5 63t-20.5 61.5t-37.5 54t-60.5 37t-86 14.5q-59 0 -109 -21t-83 -52t-58 -72t-38 -76.5t-19 -68.5l-11 -60q-5 -29 -4 -60z" />
<glyph unicode="&#x26;" horiz-adv-x="1706" d="M64 333q0 31 6 64q11 62 48.5 120.5t84 100t107.5 81.5t107.5 63t97.5 47.5t64 31.5l-13 12q-151 153 -151 315q0 36 7 74q24 136 124.5 215t268.5 79q90 0 208 -21.5t164 -46.5l-59 -98l-182 61q-24 8 -58.5 14t-55.5 6q-44 0 -83.5 -7t-78.5 -23t-65 -48t-34 -76 q-7 -39 -7 -66q0 -55 28.5 -106t106.5 -139l529 -593q54 97 75 217q9 48 8 93q0 26 -3 46l-28 192l105 42q17 -53 18 -176q0 -112 -15 -197q-28 -158 -103 -281l123 -139q63 -71 87.5 -88t64.5 -17h34l-15 -85h-162q-26 0 -47 3.5t-34 7t-26 13.5t-18.5 15t-18 19.5 t-17.5 20.5l-91 102q-110 -103 -255 -152.5t-299 -49.5q-112 0 -210 22.5t-173.5 65.5t-119.5 111.5t-44 154.5zM238 357q0 -68 36.5 -124.5t96.5 -92.5t134 -56t151 -20q122 0 242 44t214 133l-478 536q-66 -30 -113.5 -55.5t-98.5 -60.5t-84.5 -71t-59.5 -84t-36 -103 q-4 -23 -4 -46z" />
<glyph unicode="'" horiz-adv-x="341" d="M275 1556v6q9 52 37 77t65 25h87l-30 -171q-2 -11 -3 -17.5t-5.5 -21.5t-9 -30.5t-16 -56.5t-24.5 -87h-86q20 64 28 107q6 35 6 62q0 29 -8 48.5t-17 26.5t-16.5 15t-7.5 17z" />
<glyph unicode="(" horiz-adv-x="682" d="M101 451q0 121 23 255q93 542 504 868l144 116l49 -64l-75 -58q-60 -48 -108 -95t-100.5 -115.5t-92.5 -144.5t-75 -180t-56 -224l-36 -205q-24 -134 -24 -248q0 -91 14.5 -169.5t42.5 -140.5t59 -109t72 -93l54 -57l-71 -64l-104 115q-220 244 -220 613z" />
<glyph unicode=")" horiz-adv-x="682" d="M-59 -213l74 57q60 48 108.5 95t101 115.5t92.5 145t75.5 180.5t56.5 224l36 205q23 134 23 248q0 91 -14.5 169t-42.5 140t-59 109t-73 93l-53 58l71 64l103 -116q220 -244 220 -613q0 -121 -24 -255q-98 -546 -503 -868l-143 -115z" />
<glyph unicode="*" horiz-adv-x="819" d="M355 1527l36 73l136 -43l31 17l33 154h77l-21 -154l25 -17l150 43l11 -73l-151 -57l-14 -32l59 -120l-69 -42l-72 109h-34l-111 -109l-55 42l103 120l-4 32z" />
<glyph unicode="+" horiz-adv-x="1280" d="M210 768v85h470v512h85v-512h469v-85h-469v-512h-85v512h-470z" />
<glyph unicode="," horiz-adv-x="512" d="M-21 -183q66 60 100 96t40 46.5t8 23.5q1 6 1 11q0 18 -14 45t-14 38q0 3 1 6l8 45q2 11 4 16t8.5 12.5t21 11t37.5 3.5h42q34 0 46.5 -6t12.5 -19q0 -5 -2 -18l-23 -128q-8 -35 -57.5 -91t-176.5 -156z" />
<glyph unicode="-" horiz-adv-x="896" d="M216 683h555l1 -85h-555z" />
<glyph unicode="." horiz-adv-x="512" d="M92 26q0 6 2 17l15 85q2 11 4 16t8.5 12.5t21 11t37.5 3.5h42q34 0 46.5 -6.5t12.5 -19.5q0 -5 -2 -17l-15 -85q-3 -18 -7 -25t-19 -12.5t-46 -5.5h-42q-34 0 -46 6t-12 20z" />
<glyph unicode="/" horiz-adv-x="1024" d="M-17 0l1097 1621l70 -38l-1097 -1621z" />
<glyph unicode="0" d="M154 351q0 35 5 63l136 772q4 24 13.5 53t30.5 72.5t50 84t76.5 82.5t104.5 73t138.5 50.5t175.5 19.5q79 0 144 -14t110 -36.5t79 -54.5t54 -65t32.5 -70.5t16.5 -68.5t4 -63q0 -35 -5 -63l-136 -772q-4 -24 -13.5 -53t-30.5 -72.5t-50 -84t-76.5 -82.5t-104.5 -73 t-138.5 -50.5t-175.5 -19.5q-79 0 -144 14t-109.5 36.5t-79 54.5t-54.5 65t-32.5 70.5t-16.5 68.5t-4 63zM316 321q0 -33 9 -67t31 -68.5t54.5 -61t84 -43.5t114.5 -17q71 0 134 20.5t106.5 52.5t77 72t51.5 76.5t23 68.5l158 892q3 16 2 34q0 33 -9 66.5t-31 68t-54 61 t-83.5 43.5t-114.5 17q-71 0 -134 -20.5t-106.5 -52.5t-77.5 -72t-52 -76.5t-23 -68.5l-158 -892q-3 -16 -2 -33z" />
<glyph unicode="1" horiz-adv-x="597" d="M171 0l252 1431q2 12 2 21q0 19 -9 27t-28 8q-13 0 -31 -3t-49 -10t-50 -11l15 86l355 72l-286 -1621h-171z" />
<glyph unicode="2" horiz-adv-x="1194" d="M0 0l23 132q484 428 604 542q206 195 277 313q53 88 72 193q9 51 9 96q0 57 -14.5 103t-46 82t-85.5 55.5t-128 19.5q-59 0 -122 -19l-202 -62l-25 98q56 26 176 47t209 21h51q83 0 152 -28t114.5 -75t71 -107t25.5 -125q0 -29 -5 -57q-10 -55 -25 -103.5t-33 -90.5 t-47.5 -85.5t-58.5 -80.5t-77.5 -85t-92 -88.5t-114 -101t-132.5 -113.5t-157.5 -135t-179.5 -156l-4 -19h734l-30 -171h-939z" />
<glyph unicode="3" horiz-adv-x="1194" d="M13 73l60 98l181 -64q38 -14 61 -21.5t58 -14.5t65 -7q177 0 294.5 78t137.5 191l50 284q4 21 3 41q0 85 -58.5 140t-142.5 55h-145l16 86h51q51 0 103.5 28.5t91.5 69.5t65.5 84t32.5 74l14 83q5 30 6 58q0 42 -13 77t-40.5 63t-77 44t-117.5 16q-59 0 -122 -19 l-202 -62l-25 98q56 26 176 47t209 21q341 0 342 -261q0 -43 -11 -99l-8 -45q-4 -24 -18 -56t-39.5 -72.5t-71 -80.5t-101.5 -66v-2q120 0 189 -73.5t69 -184.5q0 -30 -4 -60l-37 -207q-6 -32 -16.5 -66t-33 -78t-52.5 -83t-77.5 -78t-105.5 -67t-139 -45.5t-176 -17.5h-41 q-84 0 -217 33t-184 61z" />
<glyph unicode="4" horiz-adv-x="1194" d="M3 256l19 109q80 84 133.5 142.5t128 147.5t126 162t111 171.5t100.5 192t77.5 207.5t57.5 233h170q-15 -84 -39 -165.5t-52 -153t-69.5 -148t-79.5 -138.5t-94.5 -137t-102 -131.5t-114.5 -134.5t-120.5 -133t-130.5 -139h704l90 512h171l-90 -512h85l-15 -85h-85 l-45 -256h-171l45 256h-810z" />
<glyph unicode="5" horiz-adv-x="1237" d="M96 58l60 98l141 -49q84 -30 124.5 -36.5t101.5 -6.5q71 0 134 20.5t106.5 52.5t77.5 72t52 76.5t23 68.5l77 433q5 30 5 56q0 83 -50 121.5t-135 38.5q-22 0 -59 -6t-64 -14l-412 -130h-42l136 768h853l-30 -170h-768l-90 -512l326 121q66 24 147 36.5t122 12.5 q118 0 180 -62t62 -166q0 -32 -7 -68l-70 -399q-4 -24 -13.5 -53t-30.5 -72.5t-50 -84t-76.5 -82.5t-104.5 -73t-138.5 -50.5t-175.5 -19.5q-85 0 -163 10.5t-129.5 25.5t-79.5 25.5t-40 17.5z" />
<glyph unicode="6" horiz-adv-x="1322" d="M154 351q0 35 5 63l136 770q6 36 14 66.5t27 77.5t44 84t68.5 78t97 68t133 45t173.5 18h40q84 0 217 -33t184 -61l-59 -98l-181 62q-114 41 -185 41q-89 0 -161.5 -24.5t-119 -66.5t-74.5 -91.5t-38 -105.5l-53 -303l326 119q66 24 147.5 36.5t122.5 12.5q118 0 180 -62 t62 -166q-1 -33 -7 -68l-70 -399q-4 -24 -13.5 -53t-30.5 -72.5t-50 -84t-76.5 -82.5t-104.5 -73t-138.5 -50.5t-175.5 -19.5q-79 0 -144 14t-109.5 36.5t-79 54.5t-54.5 65t-32.5 70.5t-16.5 68.5t-4 63zM316 321q0 -33 9 -67t31 -68.5t54.5 -61t84 -43.5t114.5 -17 q71 0 134 20.5t106.5 52.5t77 72t51.5 76.5t23 68.5l77 433q5 30 5 56q0 83 -50 121.5t-135 38.5q-22 0 -59 -6t-64 -14l-366 -113l-91 -516q-3 -16 -2 -33z" />
<glyph unicode="7" horiz-adv-x="1109" d="M256 0q60 342 271 718t540 733h-811l30 170h982l-15 -85q-659 -590 -826 -1536h-171z" />
<glyph unicode="8" horiz-adv-x="1280" d="M65 329q0 33 5 68q9 50 31 97.5t50.5 86.5t69.5 77.5t80 68.5t89.5 61.5t90.5 53.5t90 48l-49 36q-82 64 -122.5 142.5t-40.5 161.5q0 30 5 59q12 67 50.5 127.5t96.5 106t138.5 72t170.5 26.5h42q153 0 244.5 -67t91.5 -179q0 -23 -4 -48q-7 -38 -18.5 -72.5t-37 -77.5 t-62 -82.5t-95 -84.5t-133.5 -88l197 -152q69 -54 105 -134t36 -168q0 -38 -7 -75q-11 -65 -39 -124t-77 -112.5t-113 -92.5t-153 -62t-193 -23h-64q-103 0 -184.5 19t-135.5 51.5t-89.5 78t-50.5 95.5t-15 106zM152 342q0 -44 11.5 -82.5t41 -75t74.5 -63t115.5 -42 t160.5 -15.5h32q88 0 164 24.5t128.5 66.5t86 95.5t43.5 112.5q4 22 4 45q0 63 -29 124t-87 106l-257 198q-55 -28 -87 -45.5t-86 -49t-88.5 -55.5t-77 -60t-68.5 -69.5t-47.5 -75t-29.5 -84.5q-5 -28 -4 -55zM499 1305q0 -113 163 -240l116 -90q91 49 155.5 98t99.5 94 t51.5 81t23.5 75q3 18 3 34q0 84 -72.5 131.5t-191.5 47.5q-74 0 -148.5 -24.5t-130.5 -72.5t-66 -108q-2 -13 -3 -26z" />
<glyph unicode="9" horiz-adv-x="1322" d="M142 75l60 98l181 -62q114 -41 184 -41q89 0 161.5 24.5t119 66.5t74.5 91.5t38 105.5l54 303l-326 -119q-66 -24 -148 -36.5t-122 -12.5q-118 0 -180 62t-62 166q0 33 6 68l70 399q4 24 13.5 53t31 72.5t50.5 84t76 82.5t104 73t138.5 50.5t175.5 19.5q79 0 144.5 -14 t110 -36.5t79 -54.5t54 -65t32 -70.5t16.5 -68.5t5 -63q0 -35 -6 -63l-135 -770q-6 -36 -14 -66.5t-27 -77.5t-44 -84t-68.5 -78t-97.5 -68t-133 -45t-173 -18h-40q-84 0 -217.5 33t-184.5 61zM353 759q0 -83 49.5 -121.5t135.5 -38.5q22 0 59 6t63 14l366 113l91 516 q3 16 3 33q0 33 -9 67t-31.5 68.5t-55 61t-84 43.5t-114.5 17q-71 0 -133.5 -20.5t-106 -52.5t-77.5 -72t-51.5 -76.5t-23.5 -68.5l-76 -433q-5 -30 -5 -56z" />
<glyph unicode=":" horiz-adv-x="512" d="M92 28q0 6 2 17l15 85q2 11 4 16t9 12.5t21.5 11t37.5 3.5h42q34 0 46 -6.5t12 -19.5q0 -5 -2 -17l-15 -85q-3 -18 -7 -25t-19 -12.5t-46 -5.5h-42q-34 0 -46 6t-12 20zM272 1050q0 6 2 17l15 85q2 11 4 16t9 12.5t21.5 11t37.5 3.5h42q34 0 46 -6.5t12 -19.5 q0 -5 -2 -17l-15 -85q-3 -18 -6.5 -25t-18.5 -12.5t-46 -5.5h-42q-34 0 -46.5 6t-12.5 20z" />
<glyph unicode=";" horiz-adv-x="512" d="M-21 -183q66 60 100 96t40 46.5t8 23.5q1 6 1 11q0 18 -14 45t-14 38q0 3 1 6l8 45q2 11 4 16t8.5 12.5t21 11t37.5 3.5h42q34 0 46.5 -6t12.5 -19q0 -5 -2 -18l-23 -128q-8 -35 -57.5 -91t-176.5 -156zM272 1050q0 6 2 17l15 85q2 11 4 16t9 12.5t21.5 11t37.5 3.5h42 q34 0 46 -6.5t12 -19.5q0 -5 -2 -17l-15 -85q-3 -18 -6.5 -25t-18.5 -12.5t-46 -5.5h-42q-34 0 -46.5 6t-12.5 20z" />
<glyph unicode="&#x3c;" horiz-adv-x="853" d="M141 800l6 34l633 538l49 -62q-44 -38 -134 -112.5t-140.5 -118t-121.5 -112t-128 -135.5l-7 -36q36 -64 83.5 -132t81.5 -110t98.5 -119.5t93.5 -112.5l-71 -60z" />
<glyph unicode="=" d="M210 597v86h1110v-86h-1110zM210 937v86h1110v-86h-1110z" />
<glyph unicode="&#x3e;" horiz-adv-x="853" d="M57 322q41 35 133 112.5t140.5 119.5t120 110t129.5 132l7 36q-34 67 -81 135.5t-82 112t-98.5 118t-94.5 112.5l71 62l443 -538l-6 -34l-633 -538z" />
<glyph unicode="?" horiz-adv-x="1024" d="M220 26q0 6 2 17l15 85q2 11 4 16t8.5 12.5t21 11t37.5 3.5h42q34 0 46.5 -6.5t12.5 -19.5q0 -5 -2 -17l-15 -85q-3 -18 -7 -25t-19 -12.5t-46 -5.5h-42q-34 0 -46 6t-12 20zM274 1553q196 68 418 68q108 0 187.5 -19t125 -53t67 -76t21.5 -93q0 -23 -4 -47 q-11 -61 -37.5 -114t-63 -91.5t-81 -72t-91.5 -60.5t-94 -52.5t-90 -51.5t-77.5 -54t-58.5 -64t-31 -78l-33 -183h-86q-8 65 -8 125q0 66 10 122q12 68 48 125t84 96t104 72.5t111 63t101.5 58.5t79.5 67t40 82q3 15 3 30q0 76 -64.5 129.5t-182.5 53.5q-57 0 -105 -6.5 t-73.5 -13.5t-89.5 -28t-104 -33z" />
<glyph unicode="@" horiz-adv-x="2133" d="M52 589q12 139 61 272t126 246t181.5 209t223.5 163t255.5 104.5t275.5 37.5q129 0 248 -33t215.5 -92.5t174 -145t128 -188t72.5 -223t10 -248.5q-4 -46 -14.5 -96t-32.5 -110t-52 -115t-75.5 -107.5t-100 -90.5t-129 -61.5t-158.5 -23.5q-64 0 -113.5 41.5t-78.5 112.5 l-288 -107q-135 -49 -204 -49q-130 0 -194.5 76.5t-53.5 199.5q4 51 80 580q12 82 70 150.5t144 107t179 38.5q69 0 190 -49l169 -70l121 98h66l-27 -171q0 -1 -57.5 -281.5t-64.5 -368.5q-4 -50 1 -85.5t24 -63t57 -41t96 -13.5q85 0 165.5 73.5t133 187.5t62.5 234 q10 117 -10 227.5t-65.5 203.5t-116.5 171t-159 132.5t-196.5 84.5t-227.5 30q-126 0 -250.5 -34.5t-233.5 -96t-204 -149t-165.5 -191t-115.5 -225t-56 -247.5q-10 -116 10 -225.5t65.5 -203t116 -171.5t158.5 -133t197 -85.5t228 -30.5q199 0 389 83l25 -77 q-205 -91 -427 -91q-131 0 -250.5 33.5t-216 94t-174 146.5t-126.5 188t-70.5 222t-10.5 246zM702 365q-7 -78 33 -125.5t116 -47.5q40 0 100 19l303 92q-4 29 -1 64q2 19 3.5 31t3.5 27.5t8.5 57.5t15.5 103t26 185t39 283l-208 57q-74 20 -94 20q-95 0 -177.5 -68.5 t-95.5 -168.5q-71 -511 -72 -529z" />
<glyph unicode="A" horiz-adv-x="1450" d="M0 0l805 1621h243l232 -1621h-179l-74 512h-683l-254 -512h-90zM387 597h627l-122 854h-83z" />
<glyph unicode="B" horiz-adv-x="1450" d="M86 0l286 1621h608q123 0 200.5 -77.5t77.5 -189.5q0 -26 -5 -53l-22 -128q-12 -70 -83.5 -144t-142.5 -88l-1 -7q74 -1 143.5 -42t113 -109.5t43.5 -144.5q0 -21 -4 -41l-49 -277q-15 -84 -70.5 -157.5t-140 -118t-176.5 -44.5h-778zM271 85h529q47 0 91.5 15t84 45 t68.5 80.5t40 115.5l42 235q4 23 4 45q0 54 -24.5 99.5t-63 73.5t-83.5 43.5t-88 15.5h-465zM422 939h316q47 0 98.5 17t99.5 49t83.5 84.5t46.5 115.5l14 75q5 27 5 53v9q0 96 -56.5 145t-142.5 49h-359z" />
<glyph unicode="C" horiz-adv-x="1280" d="M151 333q0 36 7 74l138 786q15 85 59 156.5t105.5 121t139 84t159.5 50.5t167 16h9q85 0 218.5 -32t183.5 -59l-61 -99l-181 62q-38 14 -61 21.5t-58 14.5t-65 7q-74 0 -145 -19t-132 -55.5t-104 -95t-56 -131.5l-154 -870q-5 -26 -4 -51q0 -80 48 -138t122.5 -85 t164.5 -27q65 0 200 43l203 62l25 -99q-60 -27 -204.5 -59t-229.5 -32h-9q-77 0 -147.5 13.5t-132 42t-107 69.5t-72 100t-26.5 129z" />
<glyph unicode="D" horiz-adv-x="1450" d="M86 0l286 1621h554q77 0 147.5 -13.5t132.5 -42t107.5 -69.5t72 -100t26.5 -130q0 -35 -7 -73l-134 -762q-19 -106 -81 -190t-150.5 -135.5t-191 -78.5t-208.5 -27h-554zM271 85h384q73 0 144.5 19.5t132.5 56t104.5 95.5t55.5 132l150 847q4 22 4 43v8q0 80 -48 138 t-122.5 85t-164.5 27h-384z" />
<glyph unicode="E" horiz-adv-x="1280" d="M86 0l286 1621h938l-15 -85h-768l-105 -597h427l-16 -86h-427l-135 -768h768l-15 -85h-938z" />
<glyph unicode="F" horiz-adv-x="1194" d="M86 0l286 1621h938l-15 -85h-768l-121 -683h512l-15 -85h-512l-135 -768h-170z" />
<glyph unicode="G" horiz-adv-x="1450" d="M152 336q0 36 6 74l138 783q15 85 59 156.5t105.5 121t139 84t159.5 50.5t167 16h9q91 0 249.5 -39.5t232.5 -79.5l-59 -98l-263 89q-7 2 -28.5 9.5t-31.5 10.5t-29.5 8.5t-32.5 8t-30 4.5t-32 2q-74 0 -145 -19t-132 -55.5t-104 -95t-56 -131.5l-153 -868q-5 -27 -5 -52 q0 -81 48 -139t122.5 -85t164.5 -27q23 0 51 5.5t46.5 10.5t45 14t32.5 11l229 72l104 591h-386l15 85h557l-150 -853h-107l-23 105l-213 -77q-68 -24 -138.5 -36.5t-109.5 -12.5q-68 0 -132.5 13.5t-123 42.5t-102 70.5t-69 101t-25.5 129.5z" />
<glyph unicode="H" horiz-adv-x="1450" d="M86 0l286 1621h170l-120 -682h768l120 682h171l-286 -1621h-171l150 853h-768l-150 -853h-170z" />
<glyph unicode="I" horiz-adv-x="512" d="M86 0l286 1621h170l-286 -1621h-170z" />
<glyph unicode="J" horiz-adv-x="810" d="M5 30l49 81q25 -9 66.5 -17.5t61.5 -8.5q120 0 190 58t88 164q2 13 19.5 173t28.5 224l162 917h171l-237 -1344q-23 -129 -122.5 -212.5t-238.5 -83.5q-36 0 -107 13t-131 36z" />
<glyph unicode="K" horiz-adv-x="1450" d="M86 0l286 1621h170l-143 -810l1013 834l83 -92q-20 -20 -97 -69.5t-183 -120t-181 -132.5l-336 -275l628 -941l-3 -15h-211l-558 838l-176 -147l-122 -691h-170z" />
<glyph unicode="L" horiz-adv-x="1280" d="M86 0l286 1621h170l-271 -1536h854l-15 -85h-1024z" />
<glyph unicode="M" horiz-adv-x="1877" d="M54 0l328 1621h43l492 -1252h4l929 1252h47l-243 -1621h-171l186 1248h-4l-78 -113l-768 -1039h-4l-404 1033l-24 85h-2l-246 -1214h-85z" />
<glyph unicode="N" horiz-adv-x="1450" d="M86 0l286 1621h79l686 -1248l26 -59h2l231 1307h85l-286 -1621h-64l-693 1261l-31 68h-2l-234 -1329h-85z" />
<glyph unicode="O" horiz-adv-x="1450" d="M152 336q0 36 6 74l138 783q15 85 59 156.5t105.5 121t139 84t159.5 50.5t167 16q77 0 147.5 -13.5t132.5 -42t107.5 -69.5t72 -100t26.5 -130q0 -35 -7 -73l-138 -783q-15 -85 -58.5 -156.5t-105.5 -121.5t-139.5 -85t-160 -51.5t-167.5 -16.5q-77 0 -147.5 13.5 t-132 42.5t-107 70.5t-71.5 101t-26 129.5zM316 315q0 -81 48 -139t122.5 -85t164.5 -27q73 0 144.5 19.5t133 56t104.5 95.5t56 132l153 868q4 22 4 43v8q0 80 -48 138t-122.5 85t-164.5 27q-74 0 -145 -19t-132 -55.5t-104 -95t-56 -131.5l-153 -868q-5 -27 -5 -52z" />
<glyph unicode="P" horiz-adv-x="1450" d="M86 0l286 1621h586q79 0 145 -12t112 -32t81.5 -48.5t57 -59t35 -66t18.5 -67t5 -65.5q0 -39 -6 -76l-61 -342q-6 -32 -16.5 -65.5t-31.5 -76.5t-49.5 -81.5t-73 -76.5t-98 -65t-127.5 -44t-159 -17h-459l-75 -427h-170zM346 512h416q81 0 153 23t122.5 62t83.5 88.5 t42 103.5l83 470q3 19 3 38q0 101 -89 170t-249 69h-384z" />
<glyph unicode="Q" horiz-adv-x="1450" d="M152 333q0 41 7 81l138 781q6 32 16 65.5t32.5 76.5t52 81.5t77 76.5t105 65t139 44t175.5 17h64q79 0 145 -12t112 -32t81.5 -48.5t57 -59t35 -66t18.5 -67t5 -65.5q0 -39 -6 -76l-138 -781q-6 -32 -16 -65t-31.5 -75.5t-50.5 -81t-74 -77.5t-100 -67t-132 -47t-166 -22 q5 -32 17.5 -59.5t35 -54t62.5 -42t92 -15.5h171l-15 -85h-171q-174 0 -276.5 69.5t-102.5 190.5q-86 9 -152 36t-104 62t-62.5 80.5t-32.5 86.5t-8 85zM313 303q0 -101 89 -170t249 -69q90 0 168 23t132.5 62t89 88.5t43.5 103.5l166 939q3 19 3 37q0 97 -89.5 158 t-252.5 61q-180 0 -295 -72.5t-134 -183.5l-166 -939q-3 -19 -3 -38z" />
<glyph unicode="R" horiz-adv-x="1450" d="M86 0l286 1621h629q74 0 134.5 -10t103 -26.5t75 -41t52 -50.5t32.5 -58q12 -33 16 -61q4 -23 4 -48v-12q0 -47 -10 -107l-27 -153q-5 -29 -15 -57.5t-29 -63t-45.5 -65.5t-67.5 -62t-91 -54.5t-119 -41t-150 -23.5v-2q30 -12 66.5 -52t59.5 -74.5t42 -67.5l254 -459 l-6 -32h-187l-236 422q-6 12 -18 34q-16 30 -24 44t-22.5 37.5t-23 34.5t-22.5 29t-25.5 26t-28 19.5t-33 16.5t-37.5 10.5t-45 7.5t-52 2h-150l-120 -683h-170zM391 768h416q81 0 153.5 24t122.5 62.5t82.5 86t41.5 96.5l40 230q4 22 4 44q0 45 -16.5 84t-50 71.5t-93 51 t-137.5 18.5h-427z" />
<glyph unicode="S" horiz-adv-x="1450" d="M60 98l61 103q12 -5 69.5 -27t70.5 -27t61 -22t66.5 -21.5t59.5 -15.5t68 -14t63.5 -6.5t71.5 -3.5q87 0 162 19.5t125 50t87.5 68.5t56.5 73t24 66q7 39 7 72q0 28 -4.5 52.5t-16.5 46t-24 38.5t-35.5 36t-43 32.5t-54.5 33.5t-60.5 33.5t-71 37.5t-77.5 41 q-26 14 -67.5 36t-67.5 35.5t-62.5 34t-60 35.5t-52.5 36t-47.5 39.5t-37.5 42t-30 47t-18 51t-7 57.5q0 26 5 55q13 74 59.5 142t120.5 123.5t184 89t239 33.5h74q213 0 413 -79l-60 -98q-22 7 -82 28t-82 27.5t-67 18t-84 15t-85 3.5q-182 0 -307 -75.5t-144 -182.5 q-5 -26 -5 -47q0 -20 4.5 -37.5t10.5 -32.5t20 -31t25 -27.5t35 -28t41.5 -27.5t51.5 -30t57.5 -31.5t68 -36.5t74.5 -40q32 -17 85 -45t84 -44t75 -42.5t69.5 -46.5t55.5 -49.5t45.5 -58t26 -65.5t10.5 -79q0 -34 -6 -72q-11 -64 -40 -123.5t-80 -115.5t-120 -97.5 t-167 -66.5t-213 -25h-64q-243 0 -544 119z" />
<glyph unicode="T" d="M271 1536l15 85h1195l-15 -85h-512l-271 -1536h-171l271 1536h-512z" />
<glyph unicode="U" horiz-adv-x="1450" d="M152 336q0 36 6 74l214 1211h170l-221 -1254q-5 -26 -5 -51q0 -81 48.5 -139.5t123 -85.5t163.5 -27q50 0 102 7.5t109 23t108 43t95 64t75 90.5t42 118l214 1211h85l-214 -1211q-15 -85 -58.5 -156.5t-105.5 -121.5t-139.5 -85t-160 -51.5t-167.5 -16.5 q-77 0 -147.5 13.5t-132 42.5t-107 70.5t-71.5 101t-26 129.5z" />
<glyph unicode="V" horiz-adv-x="1493" d="M286 1621h180l192 -1346l3 -15q4 -24 6.5 -34.5t8 -26t13.5 -22t21.5 -14t32.5 -10.5t47 -4l729 1472h90l-804 -1621l-11 -21q-47 0 -85 4.5t-66.5 14.5t-50.5 21.5t-38 30t-26.5 35t-18.5 42t-12.5 45.5t-9.5 50z" />
<glyph unicode="W" horiz-adv-x="2261" d="M286 1621h180l155 -1352q4 -35 6 -48.5t7 -31t7.5 -21t13 -9.5t18.5 -6.5t28 -1.5l486 1042q19 48 24 72q5 26 5 56q0 37 -11.5 113.5t-11.5 118.5q0 35 6 68h220l-13 -72q-19 -105 -19 -160q0 -22 3 -39l127 -1081q4 -35 6 -48.5t7 -31t7.5 -21t13 -9.5t18.5 -6.5 t28 -1.5l690 1470h90l-766 -1621l-10 -21q-167 0 -217 79q-25 40 -36 140q0 3 -1 10q-1 9 -2 14l-94 821l-4 83h-11l-32 -83l-489 -1043l-10 -21q-164 0 -214 73q-26 39 -38 136q-1 5 -2 15q-1 12 -2 19z" />
<glyph unicode="X" d="M0 0l657 772l-371 849h201l291 -667h32l569 667h102l-657 -772l371 -849h-201l-290 666h-36l-565 -666h-103z" />
<glyph unicode="Y" horiz-adv-x="1450" d="M286 1621h194l331 -917l659 917h96l-722 -1007l-108 -614h-170l101 570z" />
<glyph unicode="Z" horiz-adv-x="1280" d="M0 0l17 98l1034 1272q15 19 51 60t62 71t27 35h-898l15 85h1088l-17 -98l-1034 -1271q-13 -17 -49 -58t-63 -72.5t-28 -36.5h920l-15 -85h-1110z" />
<glyph unicode="[" horiz-adv-x="597" d="M26 -341l361 2048h341l-15 -86h-171l-331 -1877h171l-15 -85h-341z" />
<glyph unicode="\" horiz-adv-x="1024" d="M262 1583l84 38l525 -1621l-84 -38z" />
<glyph unicode="]" horiz-adv-x="597" d="M-60 -341l15 85h171l331 1877h-171l15 86h342l-361 -2048h-342z" />
<glyph unicode="^" horiz-adv-x="896" d="M327 1427l291 250h82l203 -250l-71 -62l-39 49q-25 32 -61 66.5t-62.5 54.5t-32.5 20q-10 0 -89 -54t-117 -87l-55 -49z" />
<glyph unicode="_" d="M-75 -427l15 86h1110l-15 -86h-1110z" />
<glyph unicode="`" d="M564 1598l4 23h124q18 0 32 -6t23 -13.5t19 -25.5t15 -31t16 -41q3 -7 4 -11l54 -143l-67 -40z" />
<glyph unicode="a" d="M128 207q0 32 6 68l114 644q23 131 113.5 214t226.5 83q40 0 117 -12.5t135 -36.5l284 -120l90 148h107l-211 -1195h-107l-24 151l-340 -123q-66 -24 -147.5 -36.5t-121.5 -12.5q-118 0 -180 62t-62 166zM304 245q0 -83 50 -121.5t135 -38.5q22 0 59 6t64 14l365 113 l134 759l-326 113q-23 8 -58 13.5t-57 5.5q-99 0 -168 -51.5t-88 -163.5l-105 -593q-5 -30 -5 -56z" />
<glyph unicode="b" d="M86 0l286 1621h170l-101 -574l237 99q171 70 294 70q74 0 131 -24t91 -66.5t51 -97t17 -119.5q0 -47 -9 -96l-76 -431q-14 -80 -48 -151.5t-86 -128t-126.5 -90t-162.5 -33.5q-123 0 -269 70l-214 102l-79 -151h-106zM294 218l245 -92q106 -41 187 -41q55 0 99.5 18.5 t74.5 48t53 73t35.5 86.5t22.5 96l67 380q12 68 12 120q0 202 -183 202q-84 0 -202 -40l-277 -92z" />
<glyph unicode="c" horiz-adv-x="1194" d="M146 307q0 33 6 68l78 444q14 78 54.5 144t97.5 112t128.5 78.5t147.5 47.5t154 15q99 0 213 -21t159 -47l-60 -98l-181 61q-65 20 -146 20q-65 0 -128.5 -17t-117.5 -49t-92.5 -83.5t-49.5 -115.5l-95 -537q-4 -22 -4 -43q0 -70 43 -122t109.5 -76t146.5 -24 q84 0 153 19l203 62l25 -98q-55 -26 -176 -47t-220 -21q-71 0 -136 12.5t-122 39t-99.5 64.5t-66.5 92.5t-24 119.5z" />
<glyph unicode="d" d="M145 286q0 47 8 96l76 431q14 80 48.5 151.5t86.5 128t126.5 90t161.5 33.5q122 0 269 -70l203 -99l101 574h171l-286 -1621h-107l-24 151l-251 -102q-171 -70 -294 -70q-74 0 -130.5 24t-90.5 66.5t-51 97t-17 119.5zM316 288q0 -203 184 -203q81 0 201 41l276 92 l134 759l-244 92q-103 40 -186 40q-55 0 -100 -18.5t-75 -48t-53 -72.5t-36 -86.5t-22 -96.5l-67 -380q-12 -67 -12 -119z" />
<glyph unicode="e" d="M146 307q0 33 6 68l78 444q14 78 54.5 144t97.5 112t128.5 78.5t147.5 47.5t154 15q71 0 136.5 -12.5t122.5 -39.5t99 -65t66.5 -92.5t24.5 -119.5q0 -33 -7 -68l-31 -179h-854l-55 -311q-4 -22 -4 -43q0 -70 43 -122t109.5 -76t146.5 -24q30 0 50 1t65.5 10t100.5 27 l210 69l26 -98q-69 -32 -199 -63t-268 -31q-71 0 -136 12.5t-122 39t-99.5 64.5t-66.5 92.5t-24 119.5zM384 725h683l25 141q4 22 4 44q0 70 -42.5 121.5t-109 75.5t-147.5 24q-65 0 -128.5 -17t-117.5 -49t-92.5 -83.5t-49.5 -115.5z" />
<glyph unicode="f" horiz-adv-x="853" d="M171 0l192 1088h-171l19 107h171l23 130q23 129 122.5 212.5t238.5 83.5q35 0 103 -13t127 -36l86 -34l-41 -77l-98 34q-58 20 -95 20q-60 0 -105 -9t-83 -31.5t-62.5 -63t-35.5 -99.5q-3 -16 -9 -117h256l-19 -107h-256l-192 -1088h-171z" />
<glyph unicode="g" d="M145 300q0 35 6 71l78 442q14 80 48.5 151.5t86.5 128t126.5 90t161.5 33.5q125 0 269 -70l208 -101l85 150h107l-233 -1317q-25 -141 -158 -223t-324 -82h-382l15 86h382q51 0 93.5 10t72 25t53 39t37 46t24.5 51.5t15.5 49.5t9.5 47l18 99q-72 -17 -176 -32t-164 -15 q-80 0 -146.5 11t-113 29t-82.5 43.5t-57.5 53.5t-35.5 61t-19 62.5t-5 60.5zM312 301q0 -44 19.5 -85.5t56.5 -75.5t97.5 -55t133.5 -21q60 0 169.5 17t171.5 36l151 860l-244 92q-103 40 -186 40q-55 0 -100 -18.5t-75 -48t-53 -72.5t-36 -86.5t-22 -96.5l-80 -454 q-3 -16 -3 -32z" />
<glyph unicode="h" d="M86 0l286 1621h170l-102 -576l327 122q131 49 249 49q121 0 191.5 -58.5t70.5 -169.5q0 -33 -6 -69l-162 -919h-171l158 894q8 47 8 83q0 73 -35 107t-109 34q-28 0 -81 -9t-86 -19l-366 -113l-172 -977h-170z" />
<glyph unicode="i" horiz-adv-x="682" d="M127 194q0 39 8 83l162 918h170l-87 -491q-11 -64 -50 -224t-41 -173q-9 -53 -9 -91q0 -65 29 -98t95 -33q27 0 93 20l19 -82q-124 -42 -209 -42q-88 0 -134 57.5t-46 155.5zM338 1493l23 128h192l-23 -128q-7 -42 -103 -42q-45 0 -68.5 12.5t-20.5 29.5z" />
<glyph unicode="j" horiz-adv-x="512" d="M-364 -375l48 81q27 -9 67.5 -18.5t59.5 -9.5q120 0 190 58t88 164q2 13 20 173t29 224l159 898h170l-234 -1325q-23 -129 -122.5 -213t-238.5 -84q-34 0 -105 14.5t-131 37.5zM338 1493l23 128h192l-23 -128q-7 -42 -103 -42q-45 0 -68.5 12.5t-20.5 29.5z" />
<glyph unicode="k" horiz-adv-x="1280" d="M86 0l286 1621h170l-181 -1024l787 651l79 -96q-20 -21 -94.5 -69t-179.5 -117.5t-181 -131.5l-106 -87l489 -732l-3 -15h-211l-418 627l-182 -147l-85 -480h-170z" />
<glyph unicode="l" horiz-adv-x="682" d="M127 194q0 39 8 83l237 1344h170l-162 -917q-11 -64 -50 -224t-41 -173q-9 -53 -9 -91q0 -65 29 -98t95 -33q27 0 93 20l19 -82q-124 -42 -209 -42q-88 0 -134 57.5t-46 155.5z" />
<glyph unicode="m" horiz-adv-x="2048" d="M86 0l211 1195h104l32 -143l249 115q42 18 110.5 33.5t136.5 15.5q46 0 86 -8t76.5 -26.5t61.5 -53.5t34 -83l263 122q110 49 241 49q55 0 101 -11.5t85 -36.5t61.5 -70.5t22.5 -106.5q0 -34 -7 -72l-162 -919h-170l157 892q5 28 5 53q0 83 -52.5 123.5t-146.5 40.5 q-59 0 -108 -19l-285 -113q-3 -38 -6 -58l-162 -919h-170l157 892q5 28 5 53q0 83 -52.5 123.5t-146.5 40.5q-59 0 -108 -19l-280 -111l-173 -979h-170z" />
<glyph unicode="n" d="M86 0l211 1195h106l31 -150l333 122q131 49 249 49q121 0 191.5 -58.5t70.5 -169.5q0 -33 -6 -69l-162 -919h-171l158 894q8 47 8 83q0 73 -35 107t-109 34q-28 0 -81 -9t-86 -19l-366 -113l-172 -977h-170z" />
<glyph unicode="o" d="M146 307q0 33 6 68l78 444q14 78 54.5 144t97.5 112t128.5 78.5t147.5 47.5t154 15q71 0 136.5 -12.5t122.5 -39.5t99 -65t66.5 -92.5t24.5 -119.5q0 -33 -7 -68l-78 -444q-14 -78 -54 -144t-97.5 -112t-128.5 -78t-147.5 -47t-154.5 -15q-71 0 -136 12.5t-122 39 t-99.5 64.5t-66.5 92.5t-24 119.5zM310 286q0 -70 43 -122t109.5 -76t146.5 -24q65 0 128.5 17t117.5 49t92.5 83.5t49.5 115.5l95 537q4 22 4 44q0 70 -42.5 121.5t-109 75.5t-147.5 24q-65 0 -128.5 -17t-117.5 -49t-92.5 -83.5t-49.5 -115.5l-95 -537q-4 -22 -4 -43z" />
<glyph unicode="p" d="M11 -427l286 1622h106l34 -148h4l237 99q171 70 294 70q74 0 131 -24t91 -66.5t51 -97t17 -119.5q0 -46 -9 -96l-78 -442q-6 -32 -16 -63.5t-31.5 -71.5t-51 -75t-76 -69t-104 -58.5t-138 -39.5t-175.5 -15q-60 0 -158 15t-164 32l-80 -453h-170zM277 117q55 -19 158 -36 t163 -17q81 0 153.5 24.5t123 64t83 86.5t40.5 94l80 454q12 68 12 120q0 202 -183 202q-84 0 -202 -40l-277 -92z" />
<glyph unicode="q" d="M145 300q0 35 6 71l78 442q14 80 48.5 151.5t86.5 128t126.5 90t161.5 33.5q122 0 269 -70l208 -101l85 150h107l-286 -1622h-171l80 453q-72 -17 -176 -32t-164 -15q-80 0 -146.5 11t-113 29t-82.5 43.5t-57.5 53.5t-35.5 61t-19 62.5t-5 60.5zM312 301 q0 -44 19.5 -85.5t56.5 -75.5t97.5 -55t133.5 -21q60 0 169.5 17t171.5 36l151 860l-244 92q-103 40 -186 40q-55 0 -100 -18.5t-75 -48t-53 -72.5t-36 -86.5t-22 -96.5l-80 -454q-3 -16 -3 -32z" />
<glyph unicode="r" horiz-adv-x="853" d="M86 0l211 1195h106l19 -252l116 98q113 96 191 140t171 52l-57 -209q-203 0 -312 -92l-130 -111l-145 -821h-170z" />
<glyph unicode="s" horiz-adv-x="1194" d="M13 73l60 98q10 -3 73 -24.5t80.5 -27t69 -20.5t80 -19.5t70.5 -10t79 -5.5q155 0 258 59t118 142q3 18 3 35q0 25 -8 47t-18.5 39t-32.5 34.5t-40 29.5t-51 28t-55 26t-62.5 27.5t-63.5 27.5q-20 9 -61.5 27t-65.5 28.5t-61 29.5t-59 34t-48.5 38t-41 46t-24.5 53 t-10 64q0 23 4 47q10 57 46.5 107.5t96.5 92t152.5 66t203.5 24.5q126 0 241.5 -18.5t194.5 -49.5l-60 -98q-11 4 -47.5 16t-45.5 15t-38.5 12.5t-40.5 11.5t-36.5 8.5t-41.5 8t-40 4.5t-47 4t-50 1q-144 0 -220 -44.5t-88 -111.5q-3 -18 -3 -34q0 -19 4 -35.5t14 -31.5 t20 -26.5t30 -25t34.5 -22.5t43 -22t46.5 -21.5t54 -24t57 -24.5q20 -9 53.5 -23.5t56 -24t54 -24.5t53 -27t48 -29t44 -33.5t35.5 -38t28.5 -43.5t17 -49.5t6.5 -57.5q0 -27 -5 -57q-11 -63 -54.5 -120.5t-114 -102.5t-174 -72t-226.5 -27q-130 0 -266.5 29t-228.5 65z" />
<glyph unicode="t" horiz-adv-x="853" d="M192 1088l19 107h171l36 207l182 59l-47 -266h341l-19 -107h-341l-68 -384q-11 -64 -49.5 -218.5t-40.5 -167.5q-6 -36 -6 -66q0 -91 57 -129t169 -38q31 0 116 26l19 -81q-67 -23 -142.5 -36t-111.5 -13q-122 0 -192 65.5t-70 172.5q0 28 5 58l143 811h-171z" />
<glyph unicode="u" d="M128 206q0 33 6 69l163 920h170l-158 -894q-8 -47 -8 -83q0 -73 35 -107t109 -34q28 0 80.5 9t86.5 19l365 113l173 977h171l-211 -1195h-107l-32 149l-332 -121q-131 -49 -250 -49q-121 0 -191 58t-70 169z" />
<glyph unicode="v" horiz-adv-x="1280" d="M211 1195h182l156 -918q1 -7 3 -19q4 -23 6 -33.5t8 -25.5t14 -21.5t21.5 -14t33.5 -10.5t48 -4l548 1046h90l-625 -1195l-13 -21q-47 0 -85 4.5t-66.5 14.5t-50.5 21.5t-38 30t-26.5 35t-18.5 42t-12.5 45.5t-9.5 50z" />
<glyph unicode="w" horiz-adv-x="1962" d="M211 1195h180l158 -918q11 -67 22.5 -89.5t49.5 -31.5l344 653q18 35 25 78q5 26 5 54q0 44 -14.5 119t-14.5 105q0 16 3 30h213l-23 -128l136 -790q11 -66 23 -89t50 -32l546 1039h89l-625 -1195l-12 -21q-54 5 -94 19t-65 33.5t-42 51t-25.5 62.5t-16.5 77l-92 542 l-399 -764l-13 -21q-54 5 -94 19t-65 33.5t-42 51t-25.5 62.5t-16.5 77z" />
<glyph unicode="x" horiz-adv-x="1280" d="M0 0l574 565l-363 630h212l275 -480h28l486 480h109l-574 -566l363 -629h-212l-275 480h-28l-488 -480h-107z" />
<glyph unicode="y" horiz-adv-x="1280" d="M-32 -427l19 107q26 0 101.5 -10.5t124.5 -10.5h9q119 0 187 66q34 34 42 85q4 20 4 45q0 43 -15 124l-229 1216h182l193 -1033q11 -50 16 -111h7l620 1144h92l-749 -1374q-28 -51 -51 -85.5t-55 -68t-67.5 -52.5t-84 -30.5t-107.5 -11.5h-239z" />
<glyph unicode="z" horiz-adv-x="1194" d="M0 0l17 98l832 845q19 22 88.5 86t79.5 76l1 4h-800l15 86h1002l-18 -98l-831 -845q-14 -14 -53.5 -51t-72 -68t-41.5 -41l-1 -7h821l-15 -85h-1024z" />
<glyph unicode="{" horiz-adv-x="768" d="M161 672l4 21q17 14 63.5 46t83 58t70 65t39.5 75l86 486q8 47 37.5 95t77 91t120 70.5t157.5 27.5l-15 -86q-71 0 -132 -62.5t-76 -146.5l-65 -369q-3 -18 -11.5 -38.5t-18.5 -38.5t-26.5 -39.5t-29 -37t-34.5 -37.5l-34 -34q-12 -12 -35 -32.5t-31 -27t-29 -24.5 t-22 -19l-11 -64q1 -1 14.5 -17t18 -22.5t19 -25t22 -29t20.5 -30.5t20 -34t16.5 -34t14.5 -36.5t8.5 -35t3.5 -36.5q0 -15 -2 -29l-65 -369q-4 -23 -5 -46q0 -70 37.5 -116.5t101.5 -46.5l-15 -85q-76 0 -135 22t-93 58.5t-51 78t-17 85.5q0 20 4 39l86 487q2 9 1 19 q0 33 -21.5 68.5t-47.5 59.5t-58.5 53t-44.5 43z" />
<glyph unicode="|" horiz-adv-x="426" d="M-45 -256l316 1792h171l-316 -1792h-171z" />
<glyph unicode="}" horiz-adv-x="768" d="M-60 -341l15 85q75 0 134 61.5t74 147.5l61 348q8 44 41.5 98t81.5 105.5t83 84.5t69 62l11 64l-16 19q-16 19 -21.5 26t-21.5 28t-24 34t-22 34.5t-21.5 39t-15.5 38t-12 41t-4 39.5q0 15 3 29l65 369q4 22 4 43q0 71 -38.5 118.5t-99.5 47.5l15 86q76 0 135 -22 t92.5 -58.5t50.5 -78.5t17 -86q0 -20 -3 -39l-86 -486q-2 -9 -2 -19q0 -33 22 -68.5t48 -60t58 -53.5t44 -43l-4 -21q-17 -14 -63.5 -45.5t-82.5 -57.5t-69.5 -65t-39.5 -75l-86 -487q-8 -47 -37.5 -95t-77 -91t-120.5 -70t-157 -27z" />
<glyph unicode="~" horiz-adv-x="1258" d="M246 909l156 98q29 17 46.5 26t46.5 17t61 8q17 0 30.5 -3t23 -6t22.5 -13.5t19.5 -16t24.5 -23.5l27 -27l61 -60q31 -30 55 -43t48 -13q49 0 90.5 25.5t123.5 96.5l80 -79l-156 -98q-29 -17 -46.5 -26t-46.5 -17t-61 -8q-15 0 -26 1t-22.5 6t-18 8t-18.5 13.5t-17 15.5 l-21 21l-24 24l-61 60q-31 29 -54.5 42t-48.5 13q-49 0 -90.5 -25t-123.5 -96z" />
<glyph unicode="&#xa2;" horiz-adv-x="1194" d="M171 447q0 37 7 74l72 409q5 29 14.5 59.5t28.5 69t44 73t64.5 70t87.5 63t115 48t144 27.5l50 281h86l-49 -277q99 0 212.5 -21t159.5 -47l-60 -98l-182 61q-24 8 -58 14t-55 6h-32l-188 -1067h32q58 0 120 19l203 62l26 -98q-55 -26 -176 -47t-210 -21h-10l-34 -192 h-86l35 196q-86 9 -152 34.5t-104.5 59t-63 77.5t-33 83t-8.5 82zM337 440q0 -82 54 -146.5t157 -88.5l184 1041q-126 -27 -207.5 -105.5t-97.5 -171.5l-86 -487q-4 -21 -4 -42z" />
<glyph unicode="&#xa3;" horiz-adv-x="1536" d="M43 0l15 85h43q43 0 79 10t61 25t45 40t31.5 46t21 51.5t13.5 49.5t9 47l88 499h-256l16 86h256l43 247q5 27 10 50t16.5 58t26 64t38.5 63.5t52.5 62t70 54t90.5 44t114 28.5t139 11h41q85 0 218.5 -32t183.5 -59l-61 -99l-181 62q-38 14 -61 21.5t-58 14.5t-65 7 q-89 0 -161.5 -25t-118.5 -67t-74 -92t-38 -106l-54 -307h426l-16 -86h-426l-135 -768h810l-15 -85h-1237z" />
<glyph unicode="&#xa5;" horiz-adv-x="1450" d="M286 1621h194l331 -917l659 917h96l-722 -1007l-18 -102h288l-15 -85h-288l-75 -427h-170l75 427h-11h-299l15 85h310l11 58z" />
<glyph unicode="&#xa9;" horiz-adv-x="2133" d="M128 640q0 85 15 171q24 133 81.5 260.5t140 235t189 198t225.5 154t252.5 98.5t266.5 35q178 0 332 -62t261.5 -169.5t168.5 -257.5t61 -320q0 -85 -15 -172q-24 -133 -81.5 -260.5t-139.5 -235t-188.5 -198.5t-225.5 -154t-252.5 -98.5t-266.5 -35.5q-178 0 -332 62 t-262 170t-169 258t-61 321zM215 654q0 -156 56 -292.5t154 -235t238.5 -155t303.5 -56.5q122 0 244 32t230 90t205.5 140.5t172.5 181t128 214.5t74 238q14 79 14 157q0 156 -56 292.5t-154 235t-238.5 155t-303.5 56.5q-122 0 -244 -32t-230 -90t-205.5 -140.5 t-172.5 -181t-128 -214.5t-74 -238q-14 -79 -14 -157zM571 542q0 33 7 68l78 444q14 78 54 144t97.5 112t128.5 78.5t147.5 47.5t154.5 15q99 0 212.5 -21.5t159.5 -47.5l-61 -98l-181 62q-61 19 -145 19q-66 0 -129 -17t-117.5 -48.5t-93 -83t-49.5 -115.5l-95 -538 q-4 -22 -4 -43q0 -70 43 -121.5t109.5 -75.5t147.5 -24q84 0 152 19l203 62l26 -98q-55 -26 -176 -47.5t-220 -21.5q-71 0 -136.5 12.5t-122.5 39.5t-99 65t-66.5 92.5t-24.5 119.5z" />
<glyph unicode="&#xad;" horiz-adv-x="896" d="M216 683h555l1 -85h-555z" />
<glyph unicode="&#xae;" horiz-adv-x="2133" d="M128 640q0 85 15 171q24 133 81.5 260.5t140 235t189 198t225.5 154t252.5 98.5t266.5 35q178 0 332 -62t261.5 -169.5t168.5 -257.5t61 -320q0 -85 -15 -172q-24 -133 -81.5 -260.5t-139.5 -235t-188.5 -198.5t-225.5 -154t-252.5 -98.5t-266.5 -35.5q-178 0 -332 62 t-262 170t-169 258t-61 321zM215 654q0 -156 56 -292.5t154 -235t238.5 -155t303.5 -56.5q122 0 244 32t230 90t205.5 140.5t172.5 181t128 214.5t74 238q14 79 14 157q0 156 -56 292.5t-154 235t-238.5 155t-303.5 56.5q-122 0 -244 -32t-230 -90t-205.5 -140.5 t-172.5 -181t-128 -214.5t-74 -238q-14 -79 -14 -157zM631 250l214 1216h471q77 0 135 -14.5t91.5 -37t54 -54.5t27 -62t6.5 -64.5t-7 -77.5l-20 -115q-6 -31 -18.5 -62t-41.5 -68.5t-70 -66.5t-108 -51.5t-150 -28.5l-1 -2q52 -20 126 -143l191 -346l-4 -23h-141l-176 317 l-12 21q-18 32 -26 47t-23.5 38.5t-26 33t-28 23t-35.5 19t-42.5 9.5t-54.5 4h-113l-90 -512h-128zM861 826h311q120 0 203.5 62t96.5 140l30 171q3 17 3 33q0 72 -54.5 121t-168.5 49h-320z" />
<glyph unicode="&#xb4;" d="M586 1350l104 143q3 4 8 11q26 35 38.5 50.5t31.5 34.5t37 25.5t40 6.5h124l-4 -23l-326 -288z" />
<glyph unicode="&#x2000;" horiz-adv-x="896" />
<glyph unicode="&#x2001;" horiz-adv-x="1792" />
<glyph unicode="&#x2002;" horiz-adv-x="896" />
<glyph unicode="&#x2003;" horiz-adv-x="1792" />
<glyph unicode="&#x2004;" horiz-adv-x="597" />
<glyph unicode="&#x2005;" horiz-adv-x="448" />
<glyph unicode="&#x2006;" horiz-adv-x="298" />
<glyph unicode="&#x2007;" horiz-adv-x="298" />
<glyph unicode="&#x2008;" horiz-adv-x="224" />
<glyph unicode="&#x2009;" horiz-adv-x="358" />
<glyph unicode="&#x200a;" horiz-adv-x="99" />
<glyph unicode="&#x2010;" horiz-adv-x="896" d="M216 683h555l1 -85h-555z" />
<glyph unicode="&#x2011;" horiz-adv-x="896" d="M216 683h555l1 -85h-555z" />
<glyph unicode="&#x2012;" horiz-adv-x="896" d="M216 683h555l1 -85h-555z" />
<glyph unicode="&#x2013;" horiz-adv-x="1024" d="M135 683l15 85h854l-15 -85h-854z" />
<glyph unicode="&#x2014;" horiz-adv-x="2048" d="M135 683l15 85h1878l-15 -85h-1878z" />
<glyph unicode="&#x2018;" horiz-adv-x="426" d="M211 1367q0 5 2 18l23 128q8 35 57.5 91t175.5 156l44 -64q-66 -60 -100 -96t-40 -46.5t-8 -23.5q-1 -6 -1 -11q0 -18 14 -45t14 -38q0 -3 -1 -6l-8 -45q-2 -11 -4 -16t-8.5 -12.5t-21.5 -11t-37 -3.5h-42q-34 0 -46.5 6t-12.5 19z" />
<glyph unicode="&#x2019;" horiz-adv-x="426" d="M216 1406q66 60 100 96t40 46.5t8 23.5q1 6 1 11q0 18 -14 45t-14 38q0 3 1 6l8 45q2 11 4 16t8.5 12.5t21.5 11t37 3.5h42q34 0 46.5 -6t12.5 -19q0 -5 -2 -18l-23 -128q-8 -35 -57.5 -91t-175.5 -156z" />
<glyph unicode="&#x201c;" horiz-adv-x="682" d="M211 1367q0 5 2 18l23 128q8 35 57.5 91t175.5 156l44 -64q-66 -60 -100 -96t-40 -46.5t-8 -23.5q-1 -6 -1 -11q0 -18 14 -45t14 -38q0 -3 -1 -6l-8 -45q-2 -11 -4 -16t-8.5 -12.5t-21.5 -11t-37 -3.5h-42q-34 0 -46.5 6t-12.5 19zM509 1367q0 5 2 18l23 128 q8 35 57.5 91t175.5 156l44 -64q-66 -60 -100 -96t-40 -46.5t-8 -23.5q-1 -6 -1 -11q0 -18 14 -45t14 -38q0 -3 -1 -6l-8 -45q-2 -11 -4 -16t-8.5 -12.5t-21.5 -11t-37 -3.5h-42q-34 0 -46.5 6t-12.5 19z" />
<glyph unicode="&#x201d;" horiz-adv-x="682" d="M216 1406q66 60 100 96t40 46.5t8 23.5q1 6 1 11q0 18 -14 45t-14 38q0 3 1 6l8 45q2 11 4 16t8.5 12.5t21.5 11t37 3.5h42q34 0 46.5 -6t12.5 -19q0 -5 -2 -18l-23 -128q-8 -35 -57.5 -91t-175.5 -156zM515 1406q66 60 100 96t40 46.5t8 23.5q1 6 1 11q0 18 -14 45 t-14 38q0 3 1 6l8 45q2 11 4 16t8.5 12.5t21.5 11t37 3.5h42q34 0 46.5 -6t12.5 -19q0 -5 -2 -18l-23 -128q-8 -35 -57.5 -91t-175.5 -156z" />
<glyph unicode="&#x2022;" horiz-adv-x="768" d="M211 688q0 18 3 37q15 88 89 151t162 63q78 0 128 -51t50 -126q0 -18 -3 -37q-15 -88 -89 -150.5t-162 -62.5q-78 0 -128 50.5t-50 125.5z" />
<glyph unicode="&#x2026;" horiz-adv-x="1280" d="M92 26q0 6 2 17l15 85q2 11 4 16t8.5 12.5t21 11t37.5 3.5h42q34 0 46.5 -6.5t12.5 -19.5q0 -5 -2 -17l-15 -85q-3 -18 -7 -25t-19 -12.5t-46 -5.5h-42q-34 0 -46 6t-12 20zM476 26q0 6 2 17l15 85q2 11 4 16t8.5 12.5t21 11t37.5 3.5h42q34 0 46.5 -6.5t12.5 -19.5 q0 -5 -2 -17l-15 -85q-3 -18 -7 -25t-19 -12.5t-46 -5.5h-42q-34 0 -46 6t-12 20zM860 26q0 6 2 17l15 85q2 11 4 16t8.5 12.5t21 11t37.5 3.5h42q34 0 46.5 -6.5t12.5 -19.5q0 -5 -2 -17l-15 -85q-3 -18 -7 -25t-19 -12.5t-46 -5.5h-42q-34 0 -46 6t-12 20z" />
<glyph unicode="&#x202f;" horiz-adv-x="358" />
<glyph unicode="&#x205f;" horiz-adv-x="448" />
<glyph unicode="&#x20ac;" horiz-adv-x="1450" d="M120 683l58 85h147q16 89 40 171h-156l58 85h126q44 124 109 230t149 189.5t191 130.5t223 47h41q85 0 218.5 -32t183.5 -59l-61 -99l-181 62q-38 14 -61 21.5t-58 14.5t-65 7q-85 0 -164.5 -40.5t-143.5 -111.5t-115.5 -161.5t-88.5 -198.5h465l-58 -85h-433 q-17 -65 -29 -128l-8 -43h439l-58 -85h-392q-5 -56 -4 -110q0 -107 19.5 -197.5t58.5 -161t104 -110.5t148 -40q65 0 200 43l203 64l26 -98q-61 -28 -206 -61t-229 -33h-41q-94 0 -171 31t-130.5 85.5t-90 130.5t-53.5 164t-17 187q0 52 4 106h-197z" />
<glyph unicode="&#x2122;" d="M278 1579l8 42h478l-8 -42h-196l-106 -606h-85l106 606h-197zM727 973l131 648h17l197 -503l373 503h19l-97 -648h-68l67 454h-26l-243 -328l-65 -88l-162 414h-17l-92 -452h-34z" />
<glyph unicode="&#xe000;" horiz-adv-x="1195" d="M0 1195h1195v-1195h-1195v1195z" />
</font>
</defs>
</svg>
