<?xml version="1.0" standalone="no"?>
<!DOCTYPE svg PUBLIC "-//W3C//DTD SVG 1.1//EN" "http://www.w3.org/Graphics/SVG/1.1/DTD/svg11.dtd" >
<svg xmlns="http://www.w3.org/2000/svg">
<metadata>
This is a custom SVG webfont generated by Font Squirrel.
Copyright   : Created by gluk with FontForge httpfontforgesfnetThis Font Software is licensed under the SIL Open Font License V11This license is available with a FAQ at httpscriptssilorgOFL
</metadata>
<defs>
<font id="ResagnictoBold" horiz-adv-x="1536" >
<font-face units-per-em="2048" ascent="1621" descent="-427" />
<missing-glyph horiz-adv-x="938" />
<glyph unicode=" "  horiz-adv-x="938" />
<glyph unicode="&#x09;" horiz-adv-x="938" />
<glyph unicode="&#xa0;" horiz-adv-x="938" />
<glyph unicode="!" horiz-adv-x="426" d="M85 0v171q0 11 1 16t6.5 12.5t19.5 10.5t37 3h128q44 0 54 -9.5t10 -32.5v-171q0 -18 -2.5 -25t-16.5 -12.5t-45 -5.5h-128q-42 0 -53 9t-11 34zM85 1621h256q-4 -64 -30.5 -378t-26.5 -475q0 -140 15 -256h-171q11 97 11 256q0 166 -25.5 480t-28.5 373z" />
<glyph unicode="&#x22;" horiz-adv-x="682" d="M384 1562v34q0 10 1.5 24.5t4 20.5t7 12.5t11.5 8.5t17 2h173v-171q0 -7 -1 -14.5t-4 -19t-5.5 -21t-9 -28.5t-11 -33t-15 -44.5t-18.5 -52.5h-86q9 64 9 107q0 55 -11.5 88.5t-25 43t-25 20t-11.5 23.5zM85 1562v34q0 10 1.5 24.5t4 20.5t7 12.5t11.5 8.5t17 2h173v-171 q0 -7 -1 -14.5t-4 -19t-5.5 -21t-9 -28.5t-11 -33t-15 -44.5t-18.5 -52.5h-86q9 64 9 107q0 55 -11.5 88.5t-25 43t-25 20t-11.5 23.5z" />
<glyph unicode="#" horiz-adv-x="1365" d="M81 427l17 170h256l34 427h-256l17 171h256l30 341h171l-30 -341h256l30 341h171l-30 -341h256l-17 -171h-256l-35 -427h256l-17 -170h-256l-29 -342h-171l30 342h-256l-30 -342h-171l30 342h-256zM525 597h256l34 427h-256z" />
<glyph unicode="$" horiz-adv-x="1365" d="M98 164l43 98q45 -14 122 -39.5t112 -36t90.5 -21.5t110.5 -14v583l-241 130q-116 59 -175.5 140t-59.5 167q0 69 30 132.5t87 115t150 83.5t209 34v85h85v-85h11q213 0 427 -79l-43 -98q-25 8 -84 27.5t-83 26t-67.5 17.5t-80.5 15.5t-80 5.5v-468l357 -192 q104 -57 161.5 -147t57.5 -190q0 -76 -33.5 -144t-100 -124t-177.5 -89t-254 -33h-11v-149h-85v149q-222 7 -478 100zM343 1269q0 -55 41 -108t113 -88l79 -43v419q-233 -19 -233 -180zM661 149q158 4 243.5 72.5t85.5 160.5q0 60 -37.5 114.5t-105.5 90.5l-186 100v-538z " />
<glyph unicode="%" horiz-adv-x="2176" d="M85 1203v26q0 45 9 92t36 102.5t68.5 98t114.5 71t167 28.5h64q94 0 167 -28.5t114.5 -71t68.5 -98t36 -102.5t9 -92v-26q0 -45 -9 -92t-36 -102.5t-68.5 -98t-114.5 -71t-167 -28.5h-64q-94 0 -167 28.5t-114.5 71t-68.5 98t-36 102.5t-9 92zM256 1186q0 -33 7 -69 t25 -76.5t45.5 -71.5t74 -52t104.5 -21q59 0 105.5 21t73.5 52t45.5 72t25 76.5t6.5 68.5v60q0 33 -7 69t-25 76.5t-45.5 71.5t-74 52t-104.5 21q-59 0 -105.5 -21t-73.5 -52t-45.5 -72t-25 -76.5t-6.5 -68.5v-60zM563 -9l830 1658l113 -58l-830 -1657zM1152 371v26 q0 45 9 92t36 102.5t68.5 98t114.5 71t167 28.5h64q94 0 167 -28.5t114.5 -71t68 -98t35.5 -102.5t9 -92v-26q0 -45 -9 -92t-35.5 -102.5t-68 -98t-114.5 -71t-167 -28.5h-64q-94 0 -167 28.5t-114.5 71t-68.5 98t-36 102.5t-9 92zM1323 354q0 -33 7 -69t25 -76.5 t45.5 -71.5t74 -52t104.5 -21q59 0 105.5 21t73.5 52t45.5 72t25 76.5t6.5 68.5v60q0 33 -7 69t-25 76.5t-45.5 71.5t-74 52t-104.5 21q-59 0 -105.5 -21t-73.5 -52t-45.5 -72t-25 -76.5t-6.5 -68.5v-60z" />
<glyph unicode="&#x26;" horiz-adv-x="1834" d="M85 395q0 67 27 124.5t67 94.5t93 69.5t98 51t89 36.5t59 27l-23 21q-239 239 -239 414q0 74 23 128.5t61.5 87.5t97.5 53t122 27t144 7q86 0 199 -23.5t166 -49.5l-43 -98l-192 64q-68 22 -109 22q-45 0 -86 -7t-81.5 -23t-64.5 -48t-24 -76q0 -46 50 -109t164 -173 l597 -573q21 82 21 168q0 80 -19 139l-62 192l98 42q26 -51 47.5 -167.5t21.5 -205.5q0 -128 -37 -237l195 -185q9 -7 32 -28.5t35 -30t34 -21.5t47 -18t56 -5v-85h-222q-96 0 -151.5 23.5t-108.5 72.5l-57 55q-92 -88 -220 -130t-271 -42q-129 0 -242.5 26.5t-201.5 76.5 t-139 131t-51 182zM350 382q0 -154 112.5 -236t286.5 -82q111 0 215.5 36.5t183.5 110.5l-551 534q-123 -73 -185 -169t-62 -194z" />
<glyph unicode="'" horiz-adv-x="384" d="M85 1562v34q0 10 1.5 24.5t4 20.5t7 12.5t11.5 8.5t17 2h173v-171q0 -7 -1 -14.5t-4 -19t-5.5 -21t-9 -28.5t-11 -33t-15 -44.5t-18.5 -52.5h-86q9 64 9 107q0 55 -11.5 88.5t-25 43t-25 20t-11.5 23.5z" />
<glyph unicode="(" horiz-adv-x="682" d="M85 706q0 285 81.5 490t268.5 378l124 116l60 -64l-64 -58q-114 -106 -164 -314.5t-50 -530.5v-34q0 -322 50 -530.5t164 -314.5l64 -57l-60 -64l-124 115q-187 173 -268.5 378t-81.5 490z" />
<glyph unicode=")" horiz-adv-x="682" d="M64 -213l64 57q113 105 163 314t50 531v34q0 322 -50 531t-163 314l-64 58l60 64l123 -116q187 -173 268.5 -378t81.5 -490t-81.5 -490t-268.5 -378l-123 -115z" />
<glyph unicode="*" horiz-adv-x="819" d="M171 1527l23 73l143 -43l28 17l6 154h77l6 -154l28 -17l143 43l24 -73l-141 -57l-9 -32l81 -120l-62 -42l-91 109h-34l-92 -109l-62 42l81 120l-9 32z" />
<glyph unicode="+" horiz-adv-x="1365" d="M85 683v170h470v512h170v-512h470v-170h-470v-512h-170v512h-470z" />
<glyph unicode="," horiz-adv-x="597" d="M139 -183q98 105 98 149q0 23 -33 63.5t-33 53.5v88q0 11 1 16t6.5 12.5t19.5 10.5t37 3h128q44 0 54 -8.5t10 -33.5v-171q-1 -24 -41 -66t-156 -148q-23 -21 -36 -33z" />
<glyph unicode="-" horiz-adv-x="982" d="M171 598v170h640v-170h-640z" />
<glyph unicode="." horiz-adv-x="512" d="M128 0v171q0 11 1 16t6.5 12.5t19.5 10.5t37 3h128q44 0 54 -9.5t10 -32.5v-171q0 -18 -2.5 -25t-16.5 -12.5t-45 -5.5h-128q-42 0 -53 9t-11 34z" />
<glyph unicode="/" horiz-adv-x="1109" d="M53 -19l849 1698l154 -77l-849 -1698z" />
<glyph unicode="0" horiz-adv-x="1450" d="M171 414v772q0 31 6.5 66t23.5 78t43.5 83t70.5 78.5t100 66.5t136 45.5t174 17.5q130 0 232.5 -33t161 -81.5t97 -111t51.5 -113.5t13 -96v-772q0 -45 -13 -96t-51.5 -113.5t-97 -111t-161 -81.5t-232.5 -33q-94 0 -174 17.5t-136 45.5t-100 66.5t-70.5 78.5t-43.5 83 t-23.5 78t-6.5 66zM427 354q0 -34 7 -69t27.5 -76t52.5 -72t86.5 -52t124.5 -21q71 0 126 21t86.5 52t52 72t27.5 76t7 69v892q0 34 -7 69t-28 76t-52.5 72t-86.5 52t-125 21q-71 0 -125.5 -21t-86.5 -52t-52 -72t-27 -76t-7 -69v-892z" />
<glyph unicode="1" horiz-adv-x="682" d="M85 1451v85l427 85v-1621h-256v1376q0 45 -19 67.5t-51 22.5q-8 0 -101 -15z" />
<glyph unicode="2" horiz-adv-x="1280" d="M85 0v132q398 417 492 523q180 202 235 320q43 94 43 205q0 74 -17.5 136t-55 112.5t-103 79t-154.5 28.5q-59 0 -118 -19l-192 -62l-42 98q51 26 167.5 47t205.5 21h137q91 0 172 -34.5t136 -89.5t86.5 -125.5t31.5 -142.5q0 -63 -6.5 -115t-25 -103.5t-39 -92.5 t-61.5 -93.5t-78.5 -95t-103.5 -108.5t-124 -122t-152 -148.5t-176 -175.5v-4h766v-171h-1024z" />
<glyph unicode="3" horiz-adv-x="1237" d="M85 73l43 98l192 -64q127 -43 192 -43q70 0 129 20.5t97 52.5t65 71.5t38.5 76.5t11.5 69v241q0 107 -54 182.5t-142 75.5h-145v86h51q59 0 108.5 48t73 106t23.5 102v83q0 30 -0.5 46.5t-5 47.5t-13.5 50t-27 43t-43.5 38t-65 23.5t-90.5 9.5q-59 0 -118 -19l-192 -62 l-42 98q51 26 167.5 47t205.5 21q71 0 129.5 -8.5t101 -21.5t76 -34.5t55 -41.5t36.5 -50t22.5 -51.5t11.5 -54.5t4.5 -50.5t0.5 -47.5v-45q0 -74 -61 -160.5t-163 -114.5v-2q143 0 247.5 -86t104.5 -211v-228q0 -45 -14 -96.5t-54 -113.5t-100 -110.5t-163.5 -81.5 t-233.5 -33h-41q-84 0 -223 33t-195 61z" />
<glyph unicode="4" horiz-adv-x="1280" d="M43 256v109q84 108 146 201t126 216t104.5 244.5t66.5 275t26 319.5h256q0 -330 -175 -651q-96 -176 -308 -453q-23 -30 -70 -90q-44 -57 -66 -86h704v512h256v-512h86v-85h-86v-256h-256v256h-810z" />
<glyph unicode="5" horiz-adv-x="1322" d="M171 73l42 98l192 -64q127 -43 192 -43q70 0 129 20.5t97.5 52.5t65.5 71.5t38.5 76.5t11.5 69v414q0 104 -53.5 169.5t-143.5 65.5q-36 0 -98 -20l-422 -140h-51v778h938v-170h-853v-527l348 136q65 25 132.5 37t106.5 12q143 0 247.5 -86.5t104.5 -211.5v-397 q0 -31 -7 -66t-25.5 -78t-46 -83t-73 -78.5t-102 -66.5t-137.5 -45.5t-175 -17.5h-40q-84 0 -223 33t-195 61z" />
<glyph unicode="6" horiz-adv-x="1408" d="M171 414v770q0 31 7 66t25.5 78t46 83.5t72.5 79t101.5 67t137.5 46t175 17.5h41q84 0 223 -33t195 -61l-43 -98l-192 62q-121 41 -192 41q-87 0 -156.5 -30.5t-107.5 -76.5t-57.5 -93t-19.5 -88v-288l262 104q63 24 132.5 36.5t106.5 12.5q143 0 247.5 -86.5 t104.5 -211.5v-440q0 -36 -10.5 -75t-34 -85t-67 -86t-103 -73.5t-150 -53t-200.5 -19.5q-109 0 -198.5 22.5t-146.5 61t-98 84t-62 96.5t-30 92.5t-9 78.5zM427 354q0 -34 6 -68.5t25 -76t49.5 -72.5t84 -52t123.5 -21q64 0 118 20.5t88 52.5t58 72t34.5 76.5t10.5 68.5 v414q0 104 -53 169.5t-143 65.5q-36 0 -98 -20l-303 -98v-531z" />
<glyph unicode="7" horiz-adv-x="1152" d="M85 1451v170h1024v-85q-268 -284 -390 -665.5t-122 -870.5h-256q0 346 139.5 722.5t402.5 728.5h-798z" />
<glyph unicode="8" horiz-adv-x="1365" d="M85 397q0 69 28 134t66 111t98 93t101.5 72.5t99.5 58.5l-36 26q-108 74 -164 173t-56 200q0 150 111.5 253t306.5 103h43q184 0 284 -86.5t100 -222.5q0 -221 -237 -365l230 -156q100 -67 160 -166.5t60 -206.5q0 -63 -20 -124.5t-65 -118.5t-109.5 -100.5t-160 -69.5 t-210.5 -26h-64q-143 0 -254.5 36t-177 96.5t-99 133t-35.5 152.5zM171 397q1 -62 27.5 -118.5t81 -106t150 -79t221.5 -29.5h32q86 0 152.5 23.5t102.5 55.5t58.5 72.5t29.5 68.5t7 49q0 73 -40 142.5t-103 111.5l-333 226q-150 -84 -213 -133q-173 -133 -173 -283z M414 1363q0 -63 52 -133t138 -129l149 -100q76 43 125.5 88.5t70 88.5t26.5 71.5t6 62.5q0 101 -79 162.5t-219 61.5q-124 0 -196.5 -49t-72.5 -124z" />
<glyph unicode="9" horiz-adv-x="1408" d="M1237 1187.99v-770q0 -31 -7 -66q-7 -35.001 -25.5 -78.002t-46 -83.5029q-27.5 -40.501 -72.5 -79.0039t-101.5 -67.0059q-56.5 -28.5039 -137.5 -46.0088t-175 -17.5107l-41 -0.00292969q-84 -0.00488281 -223 32.9873q-139 32.9912 -195 60.9873l43 98.0029 l192 -61.9883q121 -40.9922 192 -40.9883q87 0.00488281 156.5 30.5098q69.5 30.5039 107.5 76.5059q38 46.0029 57.5 93.0039t19.5 88.001v288l-262 -104.016q-63 -24.0039 -132.5 -36.5078q-69.5 -12.5049 -106.5 -12.5068q-143 -0.00878906 -247.5 86.4854 q-104.5 86.4932 -104.5 211.493v440q0 36 10.5 75.001q10.5 39 34 85.002q23.5 46.001 67 86.0039t103 73.5059q59.5 33.5039 150 53.0098q90.5 19.5049 200.5 19.5117q109 0.00683594 198.5 -22.4873q89.5 -22.4951 146.5 -60.9912q57 -38.4971 98 -83.9941t62 -96.4961 t30 -92.498q9 -41.5 9 -78.5zM981 1247.97q0 34 -6 68.5t-25 75.998q-19 41.499 -49.5 72.4971t-84 51.9951t-123.5 20.9922q-64 -0.00390625 -118 -20.5068t-88 -52.5059q-34 -32.002 -58 -72.0029q-24 -40.002 -34.5 -76.502q-10.5 -36.501 -10.5 -68.501v-414 q0 -104 53 -169.497q53 -65.4961 143 -65.4912q36 0.00195312 98 20.0059l303 98.0186v531z" />
<glyph unicode=":" horiz-adv-x="512" d="M128 2v171q0 11 1 16t6.5 12.5t19.5 10.5t37 3h128q44 0 54 -9.5t10 -32.5v-171q0 -18 -2.5 -25t-16.5 -12.5t-45 -5.5h-128q-42 0 -53 9t-11 34zM128 1024v171q0 11 1 16t6.5 12.5t19.5 10.5t37 3h128q44 0 54 -9.5t10 -32.5v-171q0 -18 -2.5 -25t-16.5 -12.5t-45 -5.5 h-128q-42 0 -53 9t-11 34z" />
<glyph unicode=";" horiz-adv-x="597" d="M171 1024v171q0 11 1 16t6.5 12.5t19.5 10.5t37 3h128q44 0 54 -9.5t10 -32.5v-171q0 -18 -2.5 -25t-16.5 -12.5t-45 -5.5h-128q-42 0 -53 9t-11 34zM139 -183q98 105 98 149q0 23 -33 63.5t-33 53.5v88q0 11 1 16t6.5 12.5t19.5 10.5t37 3h128q44 0 54 -8.5t10 -33.5 v-171q-1 -24 -41 -66t-156 -148q-23 -21 -36 -33z" />
<glyph unicode="&#x3c;" horiz-adv-x="938" d="M128 800v34l538 580l102 -104q-122 -123 -212 -231t-185 -247v-36q107 -147 195.5 -253.5t201.5 -220.5l-102 -102z" />
<glyph unicode="=" horiz-adv-x="1365" d="M85 512v171h1110v-171h-1110zM85 939v170h1110v-170h-1110z" />
<glyph unicode="&#x3e;" horiz-adv-x="938" d="M171 322q112 113 199.5 219t196.5 255v36q-96 140 -185.5 248t-210.5 230l102 104l538 -580v-34l-538 -580z" />
<glyph unicode="?" horiz-adv-x="1024" d="M0 1553q184 68 448 68q129 0 227 -28.5t153.5 -77t83 -106.5t27.5 -123q0 -192 -186 -294q-88 -49 -149 -92.5t-96 -78t-53.5 -72.5t-24 -68t-5.5 -71q0 -14 1 -47t1 -51h-171q-53 177 -53 258q0 111 83 202.5t305 228.5q66 42 86.5 84.5t20.5 92.5q0 64 -75.5 111 t-178.5 47q-26 0 -49.5 -1t-48 -4t-40.5 -4.5t-42.5 -8t-38 -8.5t-43 -11.5t-41 -12.5t-48.5 -15t-50 -16zM213 0v171q0 11 1 16t6.5 12.5t19.5 10.5t37 3h128q44 0 54 -9.5t10 -32.5v-171q0 -18 -2.5 -25t-16.5 -12.5t-45 -5.5h-128q-42 0 -53 9t-11 34z" />
<glyph unicode="@" horiz-adv-x="2304" d="M171 589q0 139 37.5 272t104.5 246t163 209t209 163t246 104.5t272 37.5q193 0 366 -73t296.5 -197.5t195.5 -296.5t72 -363q0 -54 -9.5 -114t-31 -130t-61 -132.5t-93.5 -114.5t-135.5 -82.5t-179.5 -30.5q-95 0 -164 41.5t-104 112.5l-237 -107q-64 -24 -134 -36.5 t-107 -12.5q-130 0 -201.5 76.5t-71.5 199.5q0 51 30 580q7 125 115.5 210.5t251.5 85.5q37 0 105.5 -12.5t130.5 -36.5l175 -70l113 98h105l-9 -171q-1 -19 -33.5 -291.5t-32.5 -358.5q0 -96 45 -149.5t130 -53.5t159 73.5t116.5 187.5t42.5 234q0 175 -65.5 332 t-178.5 270.5t-270.5 180t-334.5 66.5q-189 0 -363.5 -76t-301.5 -203t-202.5 -301.5t-75.5 -362.5q0 -173 65.5 -330t177.5 -271t270.5 -181t335.5 -67q199 0 382 83l32 -77q-197 -91 -418 -91q-196 0 -369.5 74t-296 199.5t-193.5 296.5t-71 360zM862 365q0 -86 25 -129.5 t96 -43.5q40 0 99 19l251 92q-6 29 -6 64q0 19 0.5 31t1.5 27.5t3.5 57.5t6 103t10 185t14.5 283l-170 57q-62 20 -96 20q-90 0 -147.5 -66.5t-62.5 -170.5q-25 -492 -25 -529z" />
<glyph unicode="A" d="M85 0l519 1621h328l519 -1621h-269l-164 512h-679l-164 -512h-90zM367 597h623l-273 854h-79z" />
<glyph unicode="B" d="M171 0v1621h693q139 0 235 -95.5t96 -224.5v-128q0 -52 -60.5 -132t-125.5 -100v-7q83 -11 164.5 -57.5t136.5 -122t55 -157.5v-277q0 -129 -95.5 -224.5t-234.5 -95.5h-864zM427 85h443q100 0 169.5 65t69.5 191v235q0 65 -30 119.5t-76 87.5t-98 51.5t-99 18.5h-379 v-768zM427 939h273q46 0 95.5 20t91 53.5t68 84.5t26.5 108v75q0 126 -69.5 191t-169.5 65h-315v-597z" />
<glyph unicode="C" horiz-adv-x="1280" d="M171 414v772q0 45 14 96.5t54 113.5t100 110.5t163.5 81.5t233.5 33h41q85 0 224 -32t194 -59l-43 -99l-192 62q-127 43 -192 43q-89 0 -157 -25t-107 -67t-58 -92t-19 -106v-892q0 -56 19.5 -106t58.5 -92t107 -67t156 -25q65 0 192 43l192 64l43 -98q-56 -28 -195 -61 t-223 -33h-41q-130 0 -233.5 33t-163.5 81.5t-100 110.5t-54 113.5t-14 96.5z" />
<glyph unicode="D" d="M171 0v1621h629q130 0 233.5 -33t163.5 -81.5t100 -110.5t54 -113.5t14 -96.5v-751q0 -45 -14 -96.5t-54 -113.5t-100 -110.5t-163.5 -81.5t-233.5 -33h-629zM427 85h341q71 0 130 20.5t97 52.5t64.5 72t38 76.5t11.5 68.5v871q0 32 -11.5 69t-38.5 76.5t-65 71.5 t-97 52.5t-129 20.5h-341v-1451z" />
<glyph unicode="E" horiz-adv-x="1365" d="M171 0v1621h1024v-85h-768v-597h426v-86h-426v-768h768v-85h-1024z" />
<glyph unicode="F" horiz-adv-x="1280" d="M171 0v1621h1024v-85h-768v-683h426v-85h-426v-768h-256z" />
<glyph unicode="G" d="M171 414v772q0 45 14.5 96.5t54.5 113t100.5 110.5t163.5 82t232 33h41q89 0 255.5 -39.5t247.5 -79.5l-43 -98l-277 89q-8 2 -31 9.5t-33 10.5t-30.5 8.5t-34 8t-31 4.5t-32.5 2q-89 0 -157 -25t-107 -67t-58 -92t-19 -106v-892q0 -108 105.5 -199t235.5 -91 q23 0 50 5.5t44 10.5t42 14t30 11l175 57v606h-343v85h599v-853h-213l-23 87l-154 -59q-61 -23 -131.5 -36t-107.5 -13q-130 0 -233.5 33t-163.5 81.5t-100 110.5t-54 113.5t-14 96.5z" />
<glyph unicode="H" d="M171 0v1621h256v-682h682v682h256v-1621h-256v853h-682v-853h-256z" />
<glyph unicode="I" horiz-adv-x="597" d="M171 0v1621h256v-1621h-256z" />
<glyph unicode="J" horiz-adv-x="810" d="M85 28l41 77q62 -20 104 -20q97 0 157.5 59.5t60.5 177.5q0 110 -10.5 332.5t-10.5 348.5v618h256v-1346q0 -125 -104.5 -210.5t-247.5 -85.5q-36 0 -109.5 13t-136.5 36z" />
<glyph unicode="K" d="M171 0v1621h256v-770l823 794l98 -92q-17 -21 -84 -70t-160.5 -119.5t-158.5 -132.5l-264 -252l770 -913v-66h-280l-676 802l-68 -68v-734h-256z" />
<glyph unicode="L" horiz-adv-x="1365" d="M171 0v1621h256v-1536h853v-85h-1109z" />
<glyph unicode="M" horiz-adv-x="1962" d="M128 0l43 1621h128l693 -1218l689 1218h109l45 -1621h-256l-34 1210h-3l-38 -75l-606 -1075h-4l-608 1069l-39 76h-2l-32 -1205h-85z" />
<glyph unicode="N" d="M171 0v1621h183l896 -1248l28 -42h2v1290h85v-1621h-160l-906 1261l-41 66h-2v-1327h-85z" />
<glyph unicode="O" d="M171 414v781q0 103 51 186.5t136 134.5t190 78t220 27t220 -27t190 -78t136 -134.5t51 -186.5v-781q0 -106 -51 -190.5t-136 -137t-190 -80t-220 -27.5t-220 27.5t-190 80t-136 137t-51 190.5zM427 341q0 -118 84.5 -197.5t256.5 -79.5q89 0 157 23t107 62.5t58 87.5 t19 104v939q0 115 -83.5 185.5t-257.5 70.5q-175 0 -258 -70t-83 -186v-939z" />
<glyph unicode="P" d="M171 0v1621h629q130 0 233.5 -32t163.5 -79.5t100 -108t54 -111t14 -95.5v-342q0 -44 -14 -95.5t-51.5 -111.5t-94 -107.5t-151 -79.5t-211.5 -32h-416v-427h-256zM427 512h373q81 0 142.5 23t96.5 62.5t52.5 87.5t17.5 104v470q0 118 -84.5 197.5t-256.5 79.5h-341 v-1024z" />
<glyph unicode="Q" d="M171 414v781q0 103 51 186.5t136 134.5t190 78t220 27t220 -27t190 -78t136 -134.5t51 -186.5v-781q0 -44 -13.5 -94.5t-51.5 -111t-95 -108.5t-154.5 -82.5t-220.5 -38.5q24 -71 81.5 -121t155.5 -50h170v-85h-170q-173 0 -288.5 70t-136.5 190q-108 11 -193.5 48 t-136 84t-84 104.5t-45.5 105t-12 89.5zM427 341q0 -118 84.5 -197.5t256.5 -79.5q89 0 157 23t107 62.5t58 87.5t19 104v939q0 115 -83.5 185.5t-257.5 70.5q-175 0 -258 -70t-83 -186v-939z" />
<glyph unicode="R" d="M171 0v1621h672q94 0 172.5 -16.5t131 -42.5t93.5 -62.5t64 -73.5t37.5 -79.5t19 -75t4.5 -64.5v-153q0 -34 -7 -67.5t-23.5 -73.5t-49 -75t-78 -66.5t-116 -53.5t-157.5 -31v-2q43 -21 113 -89t99 -110l305 -433v-53h-252l-309 422q-92 126 -120 156q-70 77 -160 96 q-42 9 -98 9h-85v-683h-256zM427 768h373q64 0 117.5 18.5t88 47.5t58.5 65.5t34.5 71t10.5 66.5v230q0 33 -7 66.5t-27.5 71t-52.5 66t-86.5 47t-124.5 18.5h-384v-768z" />
<glyph unicode="S" d="M171 98l42 103q16 -6 66.5 -24t66.5 -24t59 -20.5t62.5 -20t57 -16t61.5 -14t57 -9t63 -7.5t62 -2q88 0 157 24t109.5 65t61 90t20.5 103q0 34 -4 62t-16 52t-23.5 42.5t-35 38t-43 33t-56 32.5t-63 32t-76 37t-84.5 42q-30 15 -78 38t-77.5 37t-72.5 36.5t-70 39.5 t-61.5 41.5t-55.5 46.5t-44 52t-35.5 60.5t-20.5 68t-8 79.5q0 80 37.5 153t104.5 129t168.5 89.5t222.5 33.5h75q213 0 427 -79l-43 -98q-23 7 -87 28t-87 27.5t-70 18t-86.5 15t-85.5 3.5q-172 0 -267.5 -69.5t-95.5 -165.5q0 -28 3 -49.5t14 -42.5t20.5 -35.5t35 -34 t44 -31.5t61.5 -35t72.5 -37.5t92 -45.5t107.5 -53q31 -16 84 -41t84.5 -40.5t77 -39.5t73.5 -44t62 -48.5t54.5 -58t39 -65.5t27 -79.5t8.5 -93.5q0 -68 -20.5 -131.5t-65 -121.5t-109.5 -101t-160 -68.5t-210 -25.5h-64q-243 0 -565 119z" />
<glyph unicode="T" horiz-adv-x="1450" d="M85 1536v85h1280v-85h-512v-1536h-256v1536h-512z" />
<glyph unicode="U" d="M171 414v1207h256v-1280q0 -118 84.5 -197.5t256.5 -79.5h32q114 0 204 28t140 68t82.5 90.5t43 90.5t10.5 73v1207h85v-1207q0 -45 -14 -96.5t-54 -113.5t-100 -110.5t-163.5 -81.5t-233.5 -33h-64q-130 0 -233.5 33t-163.5 81.5t-100 110.5t-54 113.5t-14 96.5z" />
<glyph unicode="V" d="M85 1621h269l458 -1427h95l454 1427h90l-519 -1621h-328z" />
<glyph unicode="W" horiz-adv-x="2304" d="M85 1619h269l415 -1425h50l263 909q10 35 10 81q0 61 -37 204t-37 233h258q0 -65 6 -97q8 -40 34 -131l349 -1197h50l414 1425h90l-476 -1621h-287l-304 1041l-304 -1041h-289z" />
<glyph unicode="X" horiz-adv-x="1450" d="M85 0l536 738l-536 883h299l395 -650h10l472 650h104l-535 -738l535 -883h-298l-395 653h-9l-473 -653h-105z" />
<glyph unicode="Y" horiz-adv-x="1450" d="M85 1621h286l444 -874h11l443 874h96l-490 -964v-657h-256v570z" />
<glyph unicode="Z" horiz-adv-x="1365" d="M85 0v111l809 1271q11 17 39 56.5t45.5 66t17.5 31.5h-889v85h1173v-108l-809 -1272q-10 -17 -36.5 -55t-46 -67t-19.5 -34h911v-85h-1195z" />
<glyph unicode="[" horiz-adv-x="682" d="M171 -341v2048h426v-86h-170v-1877h170v-85h-426z" />
<glyph unicode="\" horiz-adv-x="1109" d="M53 1602l154 77l849 -1698l-154 -77z" />
<glyph unicode="]" horiz-adv-x="682" d="M85 -256h171v1877h-171v86h427v-2048h-427v85z" />
<glyph unicode="^" horiz-adv-x="938" d="M151 1446l269 271h98l269 -271l-89 -91l-62 64q-40 43 -89.5 79.5t-77.5 52.5q-23 -13 -80.5 -58t-85.5 -74l-62 -64z" />
<glyph unicode="_" horiz-adv-x="1365" d="M85 -256h1110v-171h-1110v171z" />
<glyph unicode="`" horiz-adv-x="1365" d="M410 1598v23h145q22 0 39 -7t32 -25t25.5 -34.5t29.5 -50.5q4 -7 6 -11l79 -143l-81 -61z" />
<glyph unicode="a" horiz-adv-x="1450" d="M171 275v100q0 142 117.5 225t308.5 83h427v200q0 42 -4.5 73.5t-21 66t-45 57t-80 37t-122.5 14.5q-48 0 -123 -15.5t-118 -29.5l-199 -68l-42 98q63 31 209.5 65.5t272.5 34.5q131 0 230 -22t154.5 -55t89.5 -79.5t44.5 -87t10.5 -85.5v-887h-192l-58 132l-268 -104 q-125 -49 -197 -49q-94 0 -184.5 38t-150 107.5t-59.5 150.5zM427 316q0 -113 52.5 -172t143.5 -59q36 0 98 20l303 98v394h-341q-51 0 -91.5 -9t-67 -22.5t-45.5 -36t-29 -43t-15.5 -51.5t-6.5 -52.5t-1 -53.5v-13z" />
<glyph unicode="b" horiz-adv-x="1450" d="M171 0v1621h256v-559l262 105q61 24 140 36.5t120 12.5q141 0 236 -85t95 -212v-644q0 -127 -95 -211.5t-236 -84.5q-41 0 -120 12.5t-140 36.5l-275 109l-51 -137h-192zM427 203l303 -98q62 -20 119 -20q93 0 134 49.5t41 166.5v593q0 117 -41 166t-134 49 q-60 0 -119 -19l-303 -98v-789z" />
<glyph unicode="c" horiz-adv-x="1194" d="M171 393v409q0 45 14 94.5t54 108t100 104t163.5 76.5t233.5 31q89 0 205.5 -21t167.5 -47l-42 -98l-192 61q-62 20 -118 20q-88 0 -154 -24.5t-103.5 -67t-55 -92.5t-17.5 -106v-487q0 -133 78 -211.5t252 -78.5q59 0 118 19l192 62l42 -98q-51 -26 -167.5 -47 t-205.5 -21q-130 0 -233.5 31t-163.5 76.5t-100 104t-54 108t-14 94.5z" />
<glyph unicode="d" horiz-adv-x="1450" d="M171 275v644q0 127 94.5 212t235.5 85q41 0 120.5 -12.5t140.5 -36.5l262 -105v559h256v-1621h-192l-51 137l-275 -109q-61 -24 -140.5 -36.5t-120.5 -12.5q-141 0 -235.5 84.5t-94.5 211.5zM427 301q0 -117 41 -166.5t134 -49.5q57 0 119 20l303 98v789l-303 98 q-59 19 -119 19q-93 0 -134 -49t-41 -166v-593z" />
<glyph unicode="e" horiz-adv-x="1450" d="M171 371v452q0 45 13 92t51 103t97 98.5t161 71t232 28.5q134 0 238 -31t161.5 -75.5t95 -100.5t49 -99t11.5 -78v-192h-853v-286q0 -49 18 -97.5t54.5 -93t103.5 -72t154 -27.5q21 0 46 4t52.5 11.5t46.5 13t44.5 14.5t30.5 10l198 69l43 -99q-71 -36 -208.5 -72 t-273.5 -36q-110 0 -200.5 19.5t-150 53t-103 73.5t-67 86t-34 85t-10.5 75zM427 725h597v128q0 57 -16.5 105t-50 88t-93 62.5t-139.5 22.5q-88 0 -150 -25.5t-92.5 -69t-43 -88t-12.5 -95.5v-128z" />
<glyph unicode="f" horiz-adv-x="938" d="M85 1088v107h171v130q0 125 104.5 210.5t247.5 85.5q35 0 105 -13t134 -36l92 -34l-28 -77l-105 34q-62 20 -98 20q-116 0 -161.5 -42t-45.5 -161q0 -16 11 -117h256v-107h-256v-1088h-256v1088h-171z" />
<glyph unicode="g" horiz-adv-x="1365" d="M85 -85q0 69 20.5 104t114.5 139q-9 18 -9 85q0 147 75 260q-158 109 -158 308q0 93 35.5 166t89.5 117t125 72.5t135 39t127 10.5q88 0 175 -21h465v-107q-43 0 -141.5 9.5t-131.5 11.5q145 -106 145 -298q0 -67 -18.5 -124.5t-49.5 -98t-74 -73t-89 -53t-97 -33.5 t-96 -18.5t-88 -5.5q-155 0 -282 58q-25 -53 -25 -100q0 -107 164 -107h397q96 0 171.5 -29t121.5 -77.5t69.5 -108.5t23.5 -126t-23.5 -126t-69.5 -109t-121.5 -78t-171.5 -29h-423q-96 0 -171.5 29t-121.5 78t-69.5 109t-23.5 126zM171 -85q0 -107 76 -181.5t224 -74.5 h423q76 0 134.5 21t91 55t48.5 71.5t16 76.5q0 46 -49.5 81.5t-151.5 35.5h-512q-59 0 -118 27t-88 65q-8 -10 -23 -27t-19.5 -23t-14.5 -17.5t-12.5 -16t-8.5 -13t-7 -14t-4 -13t-3 -15.5t-1 -16.5t-1 -21.5zM384 751q0 -128 75 -194t181 -66q107 0 181.5 65t74.5 195v119 q0 128 -75 194.5t-181 66.5q-107 0 -181.5 -65.5t-74.5 -195.5v-119z" />
<glyph unicode="h" horiz-adv-x="1450" d="M171 0v1621h256v-559l262 105q61 24 140 36.5t120 12.5q141 0 236 -85t95 -212v-919h-256v894q0 117 -41 166t-134 49q-60 0 -119 -19l-303 -100v-990h-256z" />
<glyph unicode="i" horiz-adv-x="597" d="M160 1504v117h277v-117q0 -22 -20.5 -37.5t-64.5 -15.5h-107q-43 0 -64 16.5t-21 36.5zM171 0v1195h256v-1195h-256z" />
<glyph unicode="j" horiz-adv-x="597" d="M-186 -384l35 81q59 -19 104 -19q120 0 179.5 58t59.5 164q0 13 -10.5 173t-10.5 224v898h256v-1325q0 -125 -104.5 -211t-247.5 -86q-44 0 -121.5 10.5t-139.5 32.5zM160 1504v117h277v-117q0 -22 -20.5 -37.5t-64.5 -15.5h-107q-43 0 -64 16.5t-21 36.5z" />
<glyph unicode="k" horiz-adv-x="1365" d="M171 0v1621h256v-983l47 45l582 565l96 -96q-18 -23 -167 -132t-232 -186l-72 -68l633 -751v-15h-322l-495 589l-70 -68v-521h-256z" />
<glyph unicode="l" horiz-adv-x="768" d="M171 277v1344h256v-917q0 -64 -11 -224t-11 -173q0 -117 21 -169.5t90 -52.5q23 0 66 6t67 14l34 -82q-62 -22 -132.5 -32t-113.5 -10q-110 0 -188 85.5t-78 210.5z" />
<glyph unicode="m" horiz-adv-x="2133" d="M171 0v1195h211l36 -130l207 102q105 49 235 49q99 0 180 -44.5t121 -119.5l232 115q105 49 235 49q141 0 238 -85.5t97 -211.5v-919h-256v873q0 131 -43 183.5t-137 52.5q-43 0 -93 -19l-248 -100q9 -32 9 -71v-919h-256v873q0 131 -43 183.5t-137 52.5q-43 0 -93 -19 l-239 -98v-992h-256z" />
<glyph unicode="n" horiz-adv-x="1450" d="M171 0v1195h192l57 -135l269 107q61 24 140 36.5t120 12.5q141 0 236 -85t95 -212v-919h-256v894q0 117 -41 166t-134 49q-60 0 -119 -19l-303 -98v-992h-256z" />
<glyph unicode="o" horiz-adv-x="1450" d="M171 371v452q0 96 47 172.5t126.5 124t177 72t203.5 24.5t204 -24.5t177 -72t126.5 -124t47.5 -172.5v-452q0 -96 -47.5 -172.5t-126.5 -123.5t-177 -71.5t-204 -24.5t-203.5 24.5t-177 71.5t-126.5 123.5t-47 172.5zM427 324q0 -40 7 -74.5t27.5 -69.5t52.5 -60 t86 -40.5t125 -15.5t125.5 15.5t86.5 40.5t52.5 60t27.5 69.5t7 74.5v546q0 51 -13 93.5t-44 82t-92.5 62.5t-149.5 23t-150 -23t-92.5 -63t-43 -82t-12.5 -93v-546z" />
<glyph unicode="p" horiz-adv-x="1450" d="M171 -427v1622h211l38 -135l269 107q61 24 140 36.5t120 12.5q141 0 236 -85t95 -212v-548q0 -36 -10.5 -75t-34 -85t-67 -86t-103 -73.5t-150 -53t-200.5 -19.5q-134 0 -288 38v-444h-256zM427 109q58 -19 142.5 -32t145.5 -13q80 0 142 24.5t97 64.5t52.5 86t17.5 94 v561q0 117 -41 166t-134 49q-60 0 -119 -19l-303 -98v-883z" />
<glyph unicode="q" horiz-adv-x="1450" d="M171 371v548q0 127 94.5 212t235.5 85q41 0 120.5 -12.5t140.5 -36.5l268 -107l39 135h211v-1622h-256v444q-154 -38 -288 -38q-110 0 -200.5 19.5t-150 53t-103 73.5t-67 86t-34 85t-10.5 75zM427 333q0 -48 17.5 -94t52.5 -86t97 -64.5t142 -24.5q61 0 145.5 13 t142.5 32v883l-303 98q-59 19 -119 19q-93 0 -134 -49t-41 -166v-561z" />
<glyph unicode="r" horiz-adv-x="938" d="M171 0v1195h192l64 -252l98 98q7 7 35.5 36t35.5 35.5t31 29t33.5 28t31 20.5t35.5 19.5t36 12t43.5 9.5t46.5 2l-21 -230h-60q-76 0 -133.5 -14t-100.5 -57l-111 -111v-821h-256z" />
<glyph unicode="s" horiz-adv-x="1237" d="M85 73l43 98q21 -7 110.5 -36.5t122.5 -38.5t97.5 -20.5t119.5 -11.5q150 0 238.5 56.5t88.5 126.5q0 84 -96 145q-52 33 -220 101q-26 11 -45 19q-23 10 -74.5 30.5t-78.5 31.5t-71.5 33t-69.5 39.5t-56 45.5t-47.5 57t-28 68t-11.5 83q0 128 138 222t374 94 q264 0 448 -68l-43 -98q-11 4 -50 16t-48.5 15t-41 12.5t-43 11.5t-38 8.5t-42.5 8t-40.5 4.5t-48 4t-49.5 1q-134 0 -208 -47.5t-74 -114.5q0 -64 38 -98q35 -30 167 -85q13 -5 40 -16q55 -23 86 -36l65 -26q50 -20 78 -31.5t77.5 -36t80 -45.5t68.5 -53.5t59.5 -65.5 t36.5 -77t15 -92q0 -52 -20 -99t-65 -89.5t-111 -73t-163.5 -48.5t-216.5 -18q-237 0 -491 94z" />
<glyph unicode="t" horiz-adv-x="938" d="M85 1088v107h171v194l256 83v-277h341v-107h-341v-384q0 -64 -10.5 -218.5t-10.5 -167.5q0 -134 46.5 -183.5t170.5 -49.5q31 0 111 26l34 -81q-63 -23 -136 -36t-109 -13q-143 0 -247.5 85.5t-104.5 210.5v811h-171z" />
<glyph unicode="u" horiz-adv-x="1450" d="M171 275v920h256v-894q0 -117 41 -166.5t134 -49.5q57 0 119 20l303 98v992h256v-1195h-192l-58 134l-268 -106q-61 -24 -140.5 -36.5t-120.5 -12.5q-141 0 -235.5 84.5t-94.5 211.5z" />
<glyph unicode="v" horiz-adv-x="1365" d="M85 1195h273l373 -1022h75l382 1022h92l-446 -1195h-313z" />
<glyph unicode="w" horiz-adv-x="2048" d="M85 1195h271l345 -997h35l222 636q8 23 8 49q0 53 -40.5 162.5t-40.5 149.5h273v-41l332 -956h35l348 997h90l-414 -1195h-260l-77 222l-188 542l-265 -764h-260z" />
<glyph unicode="x" horiz-adv-x="1280" d="M85 0l453 538l-453 657h278l328 -472h11l397 472h106l-452 -544l452 -651h-286l-320 465h-10l-388 -465h-116z" />
<glyph unicode="y" horiz-adv-x="1280" d="M85 1195h273l331 -907q20 -50 36 -111h5l373 1018h92l-506 -1374q-24 -65 -47 -105t-59 -75.5t-89 -51.5t-127 -16h-239v107q26 0 103.5 -10.5t126.5 -10.5h9q119 0 175 66q28 34 28 85q0 55 -41 169z" />
<glyph unicode="z" horiz-adv-x="1280" d="M85 0v53l640 890q18 26 50.5 67t53 67.5t20.5 31.5h-764v86h1110v-39l-653 -904q-12 -17 -44.5 -58.5t-56 -72.5t-23.5 -36h777v-85h-1110z" />
<glyph unicode="{" horiz-adv-x="768" d="M128 672v21q9 9 38 35t47 45.5t40.5 47t34 57t11.5 59.5v486q0 45 27.5 94.5t75 92t122 70t159.5 27.5v-86q-56 0 -92 -52t-36 -135v-369q0 -17 -6.5 -37.5t-20 -43.5t-27 -43.5t-35.5 -47t-37 -44t-39.5 -43t-35.5 -36.5l-32 -32l-23 -23v-64l23 -23l32 -32 q11 -11 35.5 -36.5t39.5 -43t37 -44t35.5 -47t27 -43.5t20 -43.5t6.5 -37.5v-367q0 -85 34 -137.5t94 -52.5v-85q-85 0 -159.5 27.5t-122 69.5t-75 91.5t-27.5 94.5v487q0 37 -21.5 77t-40.5 61t-61.5 60.5t-47.5 44.5z" />
<glyph unicode="|" horiz-adv-x="597" d="M171 -427v2048h256v-2048h-256z" />
<glyph unicode="}" horiz-adv-x="768" d="M85 -256q60 0 94 52.5t34 137.5v367q0 17 6.5 37.5t20 43.5t27 43.5t35.5 47t37 44t39.5 43t35.5 36.5l32 32l23 23v64l-23 23l-32 32q-11 11 -35.5 36.5t-39.5 43t-37 44t-35.5 47t-27 43.5t-20 43.5t-6.5 37.5v369q0 83 -36 135t-92 52v86q85 0 159.5 -27.5t122 -70 t75 -92t27.5 -94.5v-486q0 -30 11.5 -59.5t34 -57t40.5 -47t47 -45.5t38 -35v-21q-5 -5 -47.5 -44.5t-61.5 -60.5t-40.5 -61t-21.5 -77v-484q0 -45 -27.5 -95t-75 -92.5t-122 -70.5t-159.5 -28v85z" />
<glyph unicode="~" horiz-adv-x="1280" d="M147 911l160 113q25 17 43.5 27t49.5 19t65 9q19 0 35.5 -3.5t27.5 -7t28 -15t24 -17t29 -24t31 -26.5l73 -60q63 -51 100 -51q44 0 76.5 22.5t100.5 92.5l13 15l130 -111l-160 -113q-26 -18 -44 -28t-49 -19t-65 -9q-16 0 -29 1t-26.5 6.5t-21 8.5t-22 14t-21 16 t-26.5 22.5t-29 25.5l-73 60q-63 51 -100 51q-44 0 -76.5 -22.5t-100.5 -92.5l-13 -15z" />
<glyph unicode="&#xa2;" horiz-adv-x="1194" d="M171 521v409q0 40 13 86t46.5 100.5t84.5 99t135.5 79.5t189.5 45v281h85v-277q99 0 216.5 -21t167.5 -47l-42 -98l-192 61q-62 20 -118 20h-32v-1067h32q59 0 118 19l192 62l42 -98q-51 -26 -167.5 -47t-205.5 -21h-11v-192h-85v196q-105 10 -189.5 45t-135.5 79.5 t-84.5 99t-46.5 100.5t-13 86zM427 482q0 -229 213 -277v1041q-213 -48 -213 -277v-487z" />
<glyph unicode="&#xa3;" d="M85 0v85h43q50 0 88 12t60.5 36t36.5 48t19.5 59.5t7 58t1.5 55.5v499h-256v86h256v247q0 31 7 66t25.5 78t46 83t73 78.5t102 66.5t137.5 45.5t175 17.5h40q85 0 224 -32t194 -59l-42 -99l-192 62q-127 43 -192 43q-71 0 -130 -20.5t-97.5 -52.5t-65 -72t-38 -76.5 t-11.5 -68.5v-307h427v-86h-427v-768h768v-85h-1280z" />
<glyph unicode="&#xa5;" horiz-adv-x="1450" d="M85 1621h286l444 -874h11l443 874h96l-490 -964v-145h320v-85h-320v-427h-256v427h-320v85h320v58z" />
<glyph unicode="&#xa9;" horiz-adv-x="2133" d="M85 811q0 200 78 381.5t209.5 313t313 209t381.5 77.5t381.5 -77.5t313 -209t209 -313t77.5 -381.5t-77.5 -381.5t-209 -313t-313 -209.5t-381.5 -78t-381.5 78t-313 209.5t-209.5 313t-78 381.5zM171 811q0 -182 71 -348t191 -286t286 -191t348 -71t348 71t286 191 t191 286t71 348t-71 348t-191 286t-286 191t-348 71t-348 -71t-286 -191t-191 -286t-71 -348zM555 628v409q0 45 14 94.5t54 108t100 104t163.5 76.5t233.5 31q89 0 205.5 -21t167.5 -47l-42 -98l-192 61q-62 20 -118 20q-88 0 -154 -24.5t-103.5 -67t-55 -92.5t-17.5 -106 v-487q0 -133 78 -211.5t252 -78.5q59 0 118 19l192 62l42 -98q-51 -26 -167.5 -47t-205.5 -21q-130 0 -233.5 31t-163.5 76.5t-100 104t-54 108t-14 94.5z" />
<glyph unicode="&#xad;" horiz-adv-x="982" d="M171 598v170h640v-170h-640z" />
<glyph unicode="&#xae;" horiz-adv-x="2133" d="M85 811q0 200 78 381.5t209.5 313t313 209t381.5 77.5t381.5 -77.5t313 -209t209 -313t77.5 -381.5t-77.5 -381.5t-209 -313t-313 -209.5t-381.5 -78t-381.5 78t-313 209.5t-209.5 313t-78 381.5zM171 811q0 -182 71 -348t191 -286t286 -191t348 -71t348 71t286 191 t191 286t71 348t-71 348t-191 286t-286 191t-348 71t-348 -71t-286 -191t-191 -286t-71 -348zM631 254v1216h504q97 0 171 -23t114.5 -57t66 -78.5t33 -80t7.5 -70.5v-116q0 -31 -7 -61.5t-28.5 -67t-56 -65.5t-94.5 -52t-138 -31v-2q32 -14 84.5 -64.5t75.5 -82.5l228 -325 v-40h-187l-233 318q-75 102 -104 130q-59 57 -151 63q-14 1 -29 1h-64v-512h-192zM823 830h280q60 0 107 21t73 53t39 65.5t13 63.5v170q0 32 -10 64t-33 65t-69.5 53.5t-111.5 20.5h-288v-576z" />
<glyph unicode="&#xb4;" horiz-adv-x="1408" d="M454 1350l79 143q23 41 32 56t26.5 36.5t34.5 28.5t40 7h145v-23l-276 -309z" />
<glyph unicode="&#x2000;" horiz-adv-x="901" />
<glyph unicode="&#x2001;" horiz-adv-x="1802" />
<glyph unicode="&#x2002;" horiz-adv-x="901" />
<glyph unicode="&#x2003;" horiz-adv-x="1802" />
<glyph unicode="&#x2004;" horiz-adv-x="600" />
<glyph unicode="&#x2005;" horiz-adv-x="450" />
<glyph unicode="&#x2006;" horiz-adv-x="300" />
<glyph unicode="&#x2007;" horiz-adv-x="300" />
<glyph unicode="&#x2008;" horiz-adv-x="225" />
<glyph unicode="&#x2009;" horiz-adv-x="360" />
<glyph unicode="&#x200a;" horiz-adv-x="100" />
<glyph unicode="&#x2010;" horiz-adv-x="982" d="M171 598v170h640v-170h-640z" />
<glyph unicode="&#x2011;" horiz-adv-x="982" d="M171 598v170h640v-170h-640z" />
<glyph unicode="&#x2012;" horiz-adv-x="982" d="M171 598v170h640v-170h-640z" />
<glyph unicode="&#x2013;" horiz-adv-x="1024" d="M85 598v170h854v-170h-854z" />
<glyph unicode="&#x2014;" horiz-adv-x="2048" d="M85 598v170h1878v-170h-1878z" />
<glyph unicode="&#x2018;" horiz-adv-x="426" d="M341 1695.99q-98 -105.006 -98 -149.006q0 -23 33 -63.498t33 -53.498v-88q0 -11 -1 -16t-6.5 -12.5q-5.5 -7.50098 -19.5 -10.501q-14 -3.00098 -37 -3.00293l-128 -0.0078125q-44 -0.00195312 -54 8.49707t-10 33.499v171q1 24 41 66.0029q40 42.002 156 148.01 q23 21.001 36 33.002z" />
<glyph unicode="&#x2019;" horiz-adv-x="426" d="M86 1406q98 105 98 149q0 23 -33 63.5t-33 53.5v88q0 11 1 16t6.5 12.5t19.5 10.5t37 3h128q44 0 54 -8.5t10 -33.5v-171q-1 -24 -41 -66t-156 -148q-23 -21 -36 -33z" />
<glyph unicode="&#x201c;" horiz-adv-x="768" d="M682 1695.99q-98 -105.006 -98 -149.006q0 -23 33 -63.498t33 -53.498v-88q0 -11 -1 -16t-6.5 -12.5q-5.5 -7.50098 -19.5 -10.501q-14 -3.00098 -37 -3.00293l-128 -0.0078125q-44 -0.00195312 -54 8.49707t-10 33.499v171q1 24 41 66.0029q40 42.002 156 148.01 q23 21.001 36 33.002zM341 1695.99q-98 -105.006 -98 -149.006q0 -23 33 -63.498t33 -53.498v-88q0 -11 -1 -16t-6.5 -12.5q-5.5 -7.50098 -19.5 -10.501q-14 -3.00098 -37 -3.00293l-128 -0.0078125q-44 -0.00195312 -54 8.49707t-10 33.499v171q1 24 41 66.0029 q40 42.002 156 148.01q23 21.001 36 33.002z" />
<glyph unicode="&#x201d;" horiz-adv-x="768" d="M395 1406q98 105 98 149q0 23 -33 63.5t-33 53.5v88q0 11 1 16t6.5 12.5t19.5 10.5t37 3h128q44 0 54 -8.5t10 -33.5v-171q-1 -24 -41 -66t-156 -148q-23 -21 -36 -33zM54 1406q98 105 98 149q0 23 -33 63.5t-33 53.5v88q0 11 1 16t6.5 12.5t19.5 10.5t37 3h128 q44 0 54 -8.5t10 -33.5v-171q-1 -24 -41 -66t-156 -148q-23 -21 -36 -33z" />
<glyph unicode="&#x2022;" horiz-adv-x="768" d="M171 725q0 88 62.5 151t150.5 63t150.5 -63t62.5 -151t-62.5 -150.5t-150.5 -62.5t-150.5 62.5t-62.5 150.5z" />
<glyph unicode="&#x2026;" horiz-adv-x="1280" d="M896 0v171q0 11 1 16t6.5 12.5t19.5 10.5t37 3h128q44 0 54 -9.5t10 -32.5v-171q0 -18 -2.5 -25t-16.5 -12.5t-45 -5.5h-128q-42 0 -53 9t-11 34zM512 0v171q0 11 1 16t6.5 12.5t19.5 10.5t37 3h128q44 0 54 -9.5t10 -32.5v-171q0 -18 -2.5 -25t-16.5 -12.5t-45 -5.5 h-128q-42 0 -53 9t-11 34zM128 0v171q0 11 1 16t6.5 12.5t19.5 10.5t37 3h128q44 0 54 -9.5t10 -32.5v-171q0 -18 -2.5 -25t-16.5 -12.5t-45 -5.5h-128q-42 0 -53 9t-11 34z" />
<glyph unicode="&#x202f;" horiz-adv-x="360" />
<glyph unicode="&#x205f;" horiz-adv-x="450" />
<glyph unicode="&#x20ac;" d="M85 683l43 85h126h19v30q0 40 9 141h-154l43 85h123q20 99 55.5 186.5t89.5 163.5t122 130.5t157 85.5t189 31h40q85 0 224 -32t194 -59l-42 -99l-192 62q-127 43 -192 43q-76 0 -140.5 -40.5t-111 -111.5t-78 -162t-48.5 -198h378l-43 -85h-346q-6 -67 -6 -139v-32h352 l-43 -85h-305q10 -125 39.5 -234t77 -196.5t118.5 -138t156 -50.5q65 0 192 43l192 64l42 -98q-56 -28 -195 -61t-223 -33h-40q-112 0 -208.5 38t-167.5 103.5t-125 155t-85 192.5t-42 215h-38h-156z" />
<glyph unicode="&#x2122;" horiz-adv-x="1450" d="M96 1566v55h499v-55h-205v-615h-89v615h-205zM683 951l17 670h34l279 -492l278 492h36l17 -670h-90l-12 455h-9l-183 -322l-58 -105l-241 425l-13 -453h-55z" />
<glyph unicode="&#xe000;" horiz-adv-x="1195" d="M0 1195h1195v-1195h-1195v1195z" />
</font>
</defs>
</svg>
